<?xml version="1.0" encoding="utf-8"?>
<!-- Generator: Adobe Illustrator 19.2.1, SVG Export Plug-In . SVG Version: 6.00 Build 0)  -->
<svg version="1.1" xmlns="http://www.w3.org/2000/svg" xmlns:xlink="http://www.w3.org/1999/xlink" x="0px" y="0px" width="197.6px"
	 height="47px" viewBox="0 0 197.6 47" style="enable-background:new 0 0 197.6 47;" xml:space="preserve">
<style type="text/css">
	.st0{fill:#AF001E;}
	.st1{fill:#FFFFFF;}
	.st2{display:none;}
</style>
<g id="Layer_3">
</g>
<g id="RSI_NEWS">
	<g id="RSI">
		<g>
			<rect class="st0" width="64.1" height="47"/>
			<path class="st1" d="M16.1,23.1l-0.3,1.5c-0.1,0.4-0.1,0.6-0.1,0.8c0,0.3,0.1,0.6,0.3,1l4.1,7.4c0.3,0.6,0.6,0.8,1.5,0.8h3.8
				c0.5,0,1.1-0.3,0.5-1.2l-5.1-8.4c1.7-1.1,3.6-2.6,3.6-6c0-4.3-2.4-6.8-7.8-6.8H8.9c-0.7,0-0.9,0.2-0.9,0.9v20.4
				c0,0.7,0.2,0.9,0.9,0.9h3.2c0.7,0,0.9-0.2,0.9-0.9V16.5h3.3c2.1,0,3.1,0.8,3.1,2.7c0,1.8-0.8,2.3-1.6,2.7
				C16.8,22.3,16.4,21.8,16.1,23.1z"/>
			<path class="st1" d="M29.3,31.1l-0.4,2.7c-0.1,0.5,0.2,0.7,0.6,0.8c1,0.1,3.5,0.3,6,0.3c5.5,0,9.5-1.8,9.5-6.9
				c0-3-1.3-5.3-5.9-6.4l-2.6-0.7c-1.7-0.4-2.5-1-2.5-2.3c0-1.8,1.7-2.1,3.3-2.1c2.1,0,4.3,0.2,5.2,0.2c0.9,0.1,1.1,0,1.3-0.8
				l0.4-2.6c0.1-0.5-0.2-0.7-0.6-0.8c-1-0.1-3.2-0.3-6-0.3c-5.7,0-8.5,2.5-8.5,6.4c0,3.6,1.9,5.7,5.3,6.5l2.6,0.7
				c2.1,0.6,3,1.2,3,2.5c0,1.9-1.3,2.3-4.5,2.3c-1.5,0-4-0.2-4.9-0.3C29.7,30.2,29.4,30.3,29.3,31.1z"/>
			<path class="st1" d="M50.7,33.7c0,0.7,0.2,0.9,0.9,0.9h3.2c0.7,0,0.9-0.2,0.9-0.9V13.3c0-0.7-0.2-0.9-0.9-0.9h-3.2
				c-0.7,0-0.9,0.2-0.9,0.9V33.7z"/>
		</g>
	</g>
	<g>
		<path class="st1" d="M74.6,30.9c0.2,0,0.5,0.1,0.9,0.2c0.5,0.1,1,0.2,1.6,0.3c0.6,0.1,1.2,0.2,1.9,0.2c0.7,0.1,1.2,0.1,1.8,0.1
			c0.8,0,1.6,0,2.1-0.1c0.6-0.1,1.1-0.3,1.4-0.5c0.4-0.2,0.6-0.6,0.8-1c0.2-0.4,0.2-0.9,0.2-1.5c0-1-0.3-1.8-0.8-2.2
			c-0.6-0.4-1.4-0.7-2.5-1l-2.5-0.6c-1.7-0.4-3-1.1-3.9-2.2c-0.9-1-1.3-2.5-1.3-4.3c0-2,0.6-3.6,1.9-4.8c1.2-1.2,3.2-1.8,6-1.8
			c0.8,0,1.5,0,2.2,0.1c0.7,0.1,1.4,0.2,2,0.3c0.6,0.1,1.1,0.2,1.5,0.3c0.4,0.1,0.7,0.2,0.8,0.2L88.1,16c-0.2,0-0.5-0.1-0.9-0.2
			c-0.4-0.1-0.9-0.2-1.4-0.2c-0.5-0.1-1.1-0.1-1.7-0.2c-0.6-0.1-1.2-0.1-1.9-0.1c-0.6,0-1.1,0-1.5,0.1c-0.5,0.1-0.9,0.2-1.2,0.4
			c-0.3,0.2-0.6,0.5-0.8,0.9c-0.2,0.4-0.3,0.9-0.3,1.5c0,1,0.3,1.7,0.8,2.1c0.5,0.4,1.2,0.8,2.1,1l2.7,0.6c2.1,0.5,3.5,1.3,4.4,2.3
			c0.8,1.1,1.2,2.5,1.2,4.2c0,1.2-0.2,2.3-0.6,3.1c-0.4,0.9-1,1.6-1.7,2.1c-0.7,0.5-1.6,0.9-2.6,1.2s-2.1,0.4-3.4,0.4
			c-1,0-1.9,0-2.8-0.1c-0.9-0.1-1.6-0.2-2.3-0.3s-1.2-0.2-1.6-0.3c-0.4-0.1-0.6-0.2-0.7-0.2L74.6,30.9z"/>
		<path class="st1" d="M108,34.3c0,0-0.2,0.1-0.6,0.2c-0.3,0.1-0.8,0.2-1.3,0.3c-0.5,0.1-1.1,0.2-1.8,0.2c-0.7,0.1-1.4,0.1-2.2,0.1
			c-1.5,0-2.9-0.2-4.1-0.6c-1.2-0.4-2.2-1-3-1.9c-0.8-0.9-1.5-2.1-1.9-3.6c-0.4-1.5-0.6-3.3-0.6-5.5c0-2.1,0.2-3.8,0.7-5.3
			c0.5-1.5,1.1-2.7,2-3.6c0.8-0.9,1.9-1.6,3.1-2c1.2-0.4,2.6-0.6,4.2-0.6c0.8,0,1.5,0,2.1,0.1c0.7,0.1,1.3,0.2,1.8,0.3
			c0.5,0.1,1,0.2,1.3,0.4c0.4,0.1,0.6,0.2,0.7,0.2l-0.8,3.3c-0.2-0.1-0.6-0.1-0.9-0.2c-0.4-0.1-0.8-0.2-1.2-0.2
			c-0.4-0.1-0.9-0.1-1.4-0.2c-0.5-0.1-0.9-0.1-1.3-0.1c-1,0-1.9,0.1-2.6,0.3c-0.8,0.2-1.4,0.6-1.9,1.2c-0.5,0.6-0.8,1.4-1.1,2.4
			c-0.2,1-0.4,2.3-0.4,3.9c0,1.6,0.1,2.9,0.4,3.9c0.2,1,0.6,1.9,1.1,2.5c0.5,0.6,1.1,1,1.9,1.3c0.8,0.2,1.7,0.4,2.7,0.4
			c1,0,2-0.1,2.9-0.2s1.8-0.3,2.4-0.4L108,34.3z"/>
		<path class="st1" d="M112,12.3h4.1v22.3H112V12.3z"/>
		<path class="st1" d="M121.3,12.3H135v3.5h-9.6v5.5h8.7v3.5h-8.7v6.2h10.2l-0.5,3.5h-13.8V12.3z"/>
		<path class="st1" d="M139.4,12.3h4l9.2,15.8V12.3h3.8v22.3h-3.9l-9.3-15.9v15.9h-3.8V12.3z"/>
		<path class="st1" d="M160,31.4l11.1-15.5h-10.5v-3.5h14.7l0.4,3.2l-11.2,15.6h11.4l-0.5,3.5H160V31.4z"/>
		<path class="st1" d="M185.7,12.3h4l7.9,22.3h-4.2l-1.9-5.6h-7.9l-1.9,5.6h-4L185.7,12.3z M190.5,25.7l-2.9-8.6l-2.9,8.6H190.5z"/>
	</g>
</g>
<g id="guide" class="st2">
</g>
</svg>
