<?xml version="1.0" encoding="utf-8"?>
<!-- Generator: Adobe Illustrator 21.1.0, SVG Export Plug-In . SVG Version: 6.00 Build 0)  -->
<svg version="1.1" id="Layer_1" xmlns="http://www.w3.org/2000/svg" xmlns:xlink="http://www.w3.org/1999/xlink" x="0px" y="0px"
	 width="20px" height="20px" viewBox="0 0 20 20" style="enable-background:new 0 0 20 20;" xml:space="preserve">
<title>audio</title>
<desc>Created with Sketch.</desc>
<g id="audio">
	<path d="M0,12.7V7.5C0,7.2,0.2,7,0.5,7h3.7c0.3,0,0.5-0.1,0.7-0.3l3.2-3.1c0.1-0.1,0.4-0.1,0.5,0c0.1,0.1,0.1,0.2,0.1,0.3v12.6
		c0,0.2-0.2,0.4-0.4,0.4c-0.1,0-0.2,0-0.3-0.1l-3.2-3.2c-0.2-0.2-0.4-0.3-0.7-0.3H0.5C0.2,13.2,0,13,0,12.7z M16.8,2.6
		C18.9,4.7,20,7.2,20,10c0,2.8-1.1,5.3-3.2,7.4l0,0c-0.2,0.2-0.5,0.2-0.7,0l-0.7-0.7c-0.2-0.2-0.2-0.5,0-0.7c0,0,0,0,0,0
		c1.7-1.7,2.6-3.7,2.6-6c0-2.3-0.9-4.3-2.6-5.9l0,0c-0.2-0.2-0.2-0.5,0-0.7c0,0,0,0,0,0l0.7-0.7C16.3,2.4,16.6,2.4,16.8,2.6z
		 M16.4,10.1c0,1.9-0.7,3.5-2.1,4.9l0,0c-0.2,0.2-0.5,0.2-0.7,0l-0.7-0.7c-0.2-0.2-0.2-0.5,0-0.7c0,0,0,0,0,0c1-0.9,1.5-2,1.5-3.4
		c0-1.4-0.5-2.5-1.5-3.4l0,0c-0.2-0.2-0.2-0.5,0-0.7c0,0,0,0,0,0l0.7-0.7c0.2-0.2,0.5-0.2,0.7,0C15.7,6.5,16.4,8.2,16.4,10.1z
		 M12.9,10.1c0,1-0.4,1.8-1.1,2.4l0,0c-0.2,0.2-0.5,0.1-0.7,0L10.7,12c-0.2-0.2-0.2-0.5,0-0.7c0,0,0,0,0,0c0.4-0.3,0.6-0.7,0.6-1.2
		c0-0.5-0.2-0.9-0.6-1.2l0,0c-0.2-0.2-0.3-0.5-0.1-0.7c0,0,0,0,0-0.1l0.4-0.4c0.2-0.2,0.5-0.2,0.7,0C12.5,8.3,12.9,9.1,12.9,10.1z"
		/>
</g>
</svg>
