<?xml version="1.0" encoding="utf-8"?>
<!-- Generator: Adobe Illustrator 21.1.0, SVG Export Plug-In . SVG Version: 6.00 Build 0)  -->
<svg version="1.1" id="Layer_1" xmlns="http://www.w3.org/2000/svg" xmlns:xlink="http://www.w3.org/1999/xlink" x="0px" y="0px"
	 width="18px" height="18px" viewBox="0 0 18 18" style="enable-background:new 0 0 18 18;" xml:space="preserve">
<title>camera</title>
<desc>Created with Sketch.</desc>
<g id="camera">
	<path d="M0.5,4.6h10.8c0.3,0,0.5,0.2,0.5,0.5v7.2c0,0.3-0.2,0.5-0.5,0.5H0.5c-0.3,0-0.5-0.2-0.5-0.5V5.1C0,4.8,0.2,4.6,0.5,4.6z
		 M2.1,6.2v2.1h3.1V6.2H2.1z M12.9,9.3V8.2c0-0.3,0.1-0.6,0.4-0.8l4.2-3.3c0.2-0.1,0.4-0.1,0.5,0.1C18,4.2,18,4.3,18,4.4v8.7
		c0,0.2-0.2,0.4-0.4,0.4c-0.1,0-0.2,0-0.2-0.1l-4.2-3.3C13,9.9,12.9,9.6,12.9,9.3z"/>
</g>
</svg>
