<?xml version="1.0" encoding="utf-8"?>
<!-- Generator: Adobe Illustrator 21.1.0, SVG Export Plug-In . SVG Version: 6.00 Build 0)  -->
<svg version="1.1" id="Layer_2" xmlns="http://www.w3.org/2000/svg" xmlns:xlink="http://www.w3.org/1999/xlink" x="0px" y="0px"
	 width="22.7px" height="19.2px" viewBox="0 0 22.7 19.2" style="enable-background:new 0 0 22.7 19.2;" xml:space="preserve">
<style type="text/css">
	.st0{fill:#333333;}
</style>
<path class="st0" d="M21.7,6.4L18.5,0H4.3L1.1,6.4C0.5,6.4,0,6.9,0,7.5v7.1c0,0.6,0.5,1.1,1.1,1.1h1.1v1.8c0,1,0.8,1.8,1.8,1.8h0.7
	c1,0,1.8-0.8,1.8-1.8v-1.8h10v1.8c0,1,0.8,1.8,1.8,1.8h0.7c1,0,1.8-0.8,1.8-1.8v-1.8h1.1c0.6,0,1.1-0.5,1.1-1.1V7.5
	C22.7,6.9,22.3,6.4,21.7,6.4z M5.6,2.1h11.6l2.1,4.3H3.5L5.6,2.1z M4.3,12.8c-1.2,0-2.1-1-2.1-2.1s1-2.1,2.1-2.1s2.1,1,2.1,2.1
	S5.4,12.8,4.3,12.8z M18.5,12.8c-1.2,0-2.1-1-2.1-2.1s1-2.1,2.1-2.1c1.2,0,2.1,1,2.1,2.1S19.7,12.8,18.5,12.8z"/>
</svg>
