<?xml version="1.0" encoding="utf-8"?>
<!-- Generator: Adobe Illustrator 21.1.0, SVG Export Plug-In . SVG Version: 6.00 Build 0)  -->
<svg version="1.1" id="Layer_1" xmlns="http://www.w3.org/2000/svg" xmlns:xlink="http://www.w3.org/1999/xlink" x="0px" y="0px"
	 width="13px" height="13px" viewBox="0 0 13 13" style="enable-background:new 0 0 13 13;" xml:space="preserve">
<title>clock</title>
<desc>Created with Sketch.</desc>
<g id="clock">
	<path d="M7.4,5.9V2c0-0.1-0.1-0.2-0.2-0.2H5.9C5.7,1.7,5.6,1.8,5.6,2v3.6H3.7c-0.1,0-0.2,0.1-0.2,0.2v1.2c0,0.1,0.1,0.2,0.2,0.2
		h3.4c0.1,0,0.2-0.1,0.2-0.2V5.9z M6.5,13C2.9,13,0,10.1,0,6.5S2.9,0,6.5,0S13,2.9,13,6.5S10.1,13,6.5,13z"/>
</g>
</svg>
