<?xml version="1.0" encoding="utf-8"?>
<!-- Generator: Adobe Illustrator 21.1.0, SVG Export Plug-In . SVG Version: 6.00 Build 0)  -->
<svg version="1.1" id="Layer_1" xmlns="http://www.w3.org/2000/svg" xmlns:xlink="http://www.w3.org/1999/xlink" x="0px" y="0px"
	 width="32px" height="32px" viewBox="0 0 32 32" style="enable-background:new 0 0 32 32;" xml:space="preserve">
<title>close</title>
<desc>Created with Sketch.</desc>
<g id="close">
	<path d="M13.1,16L0.1,3C0,2.8,0,2.5,0.1,2.3l2.2-2.2C2.5,0,2.8,0,3,0.1l13,13l13-13c0.2-0.2,0.5-0.2,0.7,0l2.2,2.2
		C32,2.5,32,2.8,31.9,3l-13,13l13,13c0.2,0.2,0.2,0.5,0,0.7l-2.2,2.2c-0.2,0.2-0.5,0.2-0.7,0l-13-13l-13,13c-0.2,0.2-0.5,0.2-0.7,0
		l-2.2-2.2C0,29.5,0,29.2,0.1,29L13.1,16z"/>
</g>
</svg>
