<?xml version="1.0" encoding="utf-8"?>
<!-- Generator: Adobe Illustrator 21.1.0, SVG Export Plug-In . SVG Version: 6.00 Build 0)  -->
<svg version="1.1" id="Layer_1" xmlns="http://www.w3.org/2000/svg" xmlns:xlink="http://www.w3.org/1999/xlink" x="0px" y="0px"
	 width="20px" height="23px" viewBox="0 0 20 23" style="enable-background:new 0 0 20 23;" xml:space="preserve">
<title>download</title>
<desc>Created with Sketch.</desc>
<g id="download">
	<path d="M8.9,13.6V2.5C8.9,2.2,9.2,2,9.4,2h1.1c0.3,0,0.5,0.2,0.5,0.5v11.1l3.3-3.3c0.2-0.2,0.5-0.2,0.7,0l0.9,0.9
		c0.2,0.2,0.2,0.5,0,0.7l-6,6l-6-6c-0.2-0.2-0.2-0.5,0-0.7l0.9-0.9c0,0,0,0,0,0c0.2-0.2,0.5-0.2,0.7,0L8.9,13.6z M0.5,19.9h19
		c0.3,0,0.5,0.2,0.5,0.5v1.1c0,0.3-0.2,0.5-0.5,0.5h-19C0.2,22,0,21.8,0,21.5v-1.1C0,20.1,0.2,19.9,0.5,19.9z"/>
</g>
</svg>
