<?xml version="1.0" encoding="utf-8"?>
<!-- Generator: Adobe Illustrator 16.0.0, SVG Export Plug-In . SVG Version: 6.00 Build 0)  -->
<!DOCTYPE svg PUBLIC "-//W3C//DTD SVG 1.1//EN" "http://www.w3.org/Graphics/SVG/1.1/DTD/svg11.dtd">
<svg version="1.1" id="Layer_1" xmlns="http://www.w3.org/2000/svg" xmlns:xlink="http://www.w3.org/1999/xlink" x="0px" y="0px"
	 width="52px" height="52px" viewBox="0 0 52 52" enable-background="new 0 0 52 52" xml:space="preserve">
<g>
	<path id="White_9_" d="M49.727,0H2.275C0.976,0,0,0.976,0,2.275v47.774C0,51.025,0.976,52,2.275,52H26V35.75h-6.5V26H26v-6.5
		c0-6.824,3.899-9.75,9.75-9.75c2.924,0,5.851,0,6.5,0v9.75H39c-1.952,0-3.25,1.3-3.25,3.25V26h8.451l-1.951,9.75h-6.5V52h13.975
		C51.023,52,52,51.025,52,49.725V2.274C52,0.976,51.023,0,49.727,0z"/>
</g>
</svg>
