<?xml version="1.0" encoding="utf-8"?>
<!-- Generator: Adobe Illustrator 21.1.0, SVG Export Plug-In . SVG Version: 6.00 Build 0)  -->
<svg version="1.1" id="Layer_1" xmlns="http://www.w3.org/2000/svg" xmlns:xlink="http://www.w3.org/1999/xlink" x="0px" y="0px"
	 width="24px" height="24px" viewBox="0 0 24 24" style="enable-background:new 0 0 24 24;" xml:space="preserve">
<style type="text/css">
	.st0{fill:#8C8C8C;}
</style>
<title>filter</title>
<desc>Created with Sketch.</desc>
<g id="filter">
	<path class="st0" d="M2.7,18.3c0.5-1.8,2.2-3.2,4.2-3.2c2.4,0,4.4,2,4.4,4.4S9.4,24,6.9,24c-2,0-3.7-1.3-4.2-3.2H0.5
		c-0.3,0-0.5-0.2-0.5-0.5v-1.5c0-0.3,0.2-0.5,0.5-0.5H2.7z M2.7,3.2C3.3,1.3,4.9,0,6.9,0c2.4,0,4.4,2,4.4,4.4s-2,4.4-4.4,4.4
		c-2,0-3.7-1.3-4.2-3.2H0.5C0.2,5.7,0,5.5,0,5.2V3.7c0-0.3,0.2-0.5,0.5-0.5H2.7z M10.3,10.7c0.5-1.8,2.2-3.2,4.2-3.2
		c2.4,0,4.4,2,4.4,4.4s-2,4.4-4.4,4.4c-2,0-3.7-1.3-4.2-3.2H0.5C0.2,13.3,0,13,0,12.8v-1.5c0-0.3,0.2-0.5,0.5-0.5H10.3z M12.6,18.3
		h10.9c0.3,0,0.5,0.2,0.5,0.5v1.5c0,0.3-0.2,0.5-0.5,0.5H12.6V18.3z M20.2,10.7h3.3c0.3,0,0.5,0.2,0.5,0.5v1.5
		c0,0.3-0.2,0.5-0.5,0.5h-3.3V10.7z M12.6,3.2h10.9c0.3,0,0.5,0.2,0.5,0.5v1.5c0,0.3-0.2,0.5-0.5,0.5H12.6V3.2z M14.5,14.2
		c1.2,0,2.2-1,2.2-2.2s-1-2.2-2.2-2.2s-2.2,1-2.2,2.2S13.3,14.2,14.5,14.2z M6.9,6.6c1.2,0,2.2-1,2.2-2.2s-1-2.2-2.2-2.2
		s-2.2,1-2.2,2.2S5.7,6.6,6.9,6.6z M6.9,21.8c1.2,0,2.2-1,2.2-2.2s-1-2.2-2.2-2.2s-2.2,1-2.2,2.2S5.7,21.8,6.9,21.8z"/>
</g>
</svg>
