<?xml version="1.0" encoding="utf-8"?>
<!-- Generator: Adobe Illustrator 21.1.0, SVG Export Plug-In . SVG Version: 6.00 Build 0)  -->
<svg version="1.1" id="Layer_1" xmlns="http://www.w3.org/2000/svg" xmlns:xlink="http://www.w3.org/1999/xlink" x="0px" y="0px"
	 width="13px" height="18px" viewBox="0 0 13 18" style="enable-background:new 0 0 13 18;" xml:space="preserve">
<title>hourglass</title>
<desc>Created with Sketch.</desc>
<g id="hourglass">
	<path d="M1.5,14.5c0-0.3,0-0.6,0-1c0-2.2,1.4-4.1,3.4-4.8C2.9,8.1,1.5,6.2,1.5,4c0-0.2,0-0.3,0-0.5L1,3.5C0.7,3.5,0.5,3.3,0.5,3
		V2.5C0.5,2.2,0.7,2,1,2h11c0.3,0,0.5,0.2,0.5,0.5V3c0,0.3-0.2,0.5-0.5,0.5h-0.5c0,0.2,0,0.3,0,0.5c0,2.2-1.4,4.1-3.4,4.8
		c2,0.7,3.4,2.5,3.4,4.8c0,0.4,0,0.7,0,1H12c0.3,0,0.5,0.2,0.5,0.5v0.5c0,0.3-0.2,0.5-0.5,0.5H1c-0.3,0-0.5-0.2-0.5-0.5V15
		c0-0.3,0.2-0.5,0.5-0.5C1,14.5,1.5,14.5,1.5,14.5z M3.2,14.5C3.7,12.8,4.8,12,6.5,12s2.8,0.8,3.3,2.5H10c0-0.1,0-0.3,0-0.4
		c0-2.2-1.4-4.1-3.5-4.1S3,11.8,3,14.1c0,0.2,0,0.3,0,0.4H3.2z M3,3.5c0,0,0,0.1,0,0.1C3,4.5,3.3,5.3,3.7,6h5.6
		C9.8,5.3,10,4.5,10,3.6c0-0.1,0-0.1,0-0.1H3z"/>
</g>
</svg>
