<?xml version="1.0" encoding="utf-8"?>
<!-- Generator: Adobe Illustrator 21.1.0, SVG Export Plug-In . SVG Version: 6.00 Build 0)  -->
<svg version="1.1" id="Layer_1" xmlns="http://www.w3.org/2000/svg" xmlns:xlink="http://www.w3.org/1999/xlink" x="0px" y="0px"
	 width="22px" height="4px" viewBox="0 0 22 4" style="enable-background:new 0 0 22 4;" xml:space="preserve">
<style type="text/css">
	.st0{fill:#333333;}
</style>
<title>more-hrz</title>
<desc>Created with Sketch.</desc>
<g id="more-hrz">
	<path class="st0" d="M11,4C9.9,4,9,3.1,9,2s0.9-2,2-2s2,0.9,2,2S12.1,4,11,4z M4,4C2.9,4,2,3.1,2,2s0.9-2,2-2s2,0.9,2,2S5.1,4,4,4z
		 M18,4c-1.1,0-2-0.9-2-2s0.9-2,2-2s2,0.9,2,2S19.1,4,18,4z"/>
</g>
</svg>
