<?xml version="1.0" encoding="utf-8"?>
<!-- Generator: Adobe Illustrator 21.1.0, SVG Export Plug-In . SVG Version: 6.00 Build 0)  -->
<svg version="1.1" id="Layer_1" xmlns="http://www.w3.org/2000/svg" xmlns:xlink="http://www.w3.org/1999/xlink" x="0px" y="0px"
	 width="18px" height="18px" viewBox="0 0 18 18" style="enable-background:new 0 0 18 18;" xml:space="preserve">
<title>multicam</title>
<desc>Created with Sketch.</desc>
<g id="multicam">
	<path d="M13,8l-1.5,1.5v-1C11.5,7.7,10.8,7,10,7H2.5V3.5C2.5,3.2,2.7,3,3,3h9.5C12.8,3,13,3.2,13,3.5V8z M16.5,9.5V7.8
		c0-0.4-0.1-0.7-0.4-1c-0.5-0.5-1.4-0.5-1.9,0l-0.1,0.1C14,6.8,14,6.7,14,6.6V6.4c0-0.3,0.1-0.5,0.3-0.7l3.1-3.1
		c0.1-0.1,0.4-0.1,0.5,0C18,2.7,18,2.8,18,2.9v7.2c0,0.2-0.2,0.4-0.4,0.4c-0.1,0-0.2,0-0.3-0.1L16.5,9.5z M4.5,4.5V6H7V4.5H4.5z
		 M0.5,8H10c0.3,0,0.5,0.2,0.5,0.5v6c0,0.3-0.2,0.5-0.5,0.5H0.5C0.2,15,0,14.8,0,14.5v-6C0,8.2,0.2,8,0.5,8z M2,9.5V11h2.5V9.5H2z
		 M11.5,11.6v-0.2c0-0.3,0.1-0.5,0.3-0.7l3.1-3.1c0.1-0.1,0.4-0.1,0.5,0c0.1,0.1,0.1,0.2,0.1,0.3v7.2c0,0.2-0.2,0.4-0.4,0.4
		c-0.1,0-0.2,0-0.3-0.1l-3.1-3.1C11.6,12.1,11.5,11.9,11.5,11.6z"/>
</g>
</svg>
