<?xml version="1.0" encoding="utf-8"?>
<!-- Generator: Adobe Illustrator 21.1.0, SVG Export Plug-In . SVG Version: 6.00 Build 0)  -->
<svg version="1.1" id="Layer_1" xmlns="http://www.w3.org/2000/svg" xmlns:xlink="http://www.w3.org/1999/xlink" x="0px" y="0px"
	 width="21px" height="22px" viewBox="0 0 21 22" style="enable-background:new 0 0 21 22;" xml:space="preserve">
<style type="text/css">
	.st0{fill:#333333;}
</style>
<title>podcast</title>
<desc>Created with Sketch.</desc>
<g id="podcast">
	<path class="st0" d="M9.7,12.4c-0.7-0.3-1.2-1-1.2-1.9c0-1.1,0.9-2,2-2s2,0.9,2,2c0,0.8-0.5,1.6-1.2,1.9l1.2,8.6
		c0,0.3-0.2,0.5-0.4,0.6c0,0,0,0-0.1,0H9.1c-0.3,0-0.5-0.2-0.5-0.5c0,0,0,0,0-0.1L9.7,12.4z M3.1,17.2c-1.7-2-2.6-4.2-2.6-6.7
		c0-5.5,4.5-10,10-10s10,4.5,10,10c0,2.5-0.9,4.7-2.6,6.7l0,0c-0.2,0.2-0.5,0.2-0.7,0c0,0,0,0,0,0l-0.7-0.7c-0.2-0.2-0.2-0.5,0-0.7
		c1.4-1.5,2-3.3,2-5.3c0-4.4-3.6-8-8-8s-8,3.6-8,8c0,2,0.7,3.8,2,5.3l0,0c0.2,0.2,0.2,0.5,0,0.7l-0.7,0.7
		C3.6,17.4,3.3,17.4,3.1,17.2C3.1,17.2,3.1,17.2,3.1,17.2z M4.5,10.5c0-3.3,2.7-6,6-6s6,2.7,6,6c0,1.4-0.5,2.7-1.4,3.8l0,0
		c-0.2,0.2-0.5,0.2-0.7,0.1c0,0,0,0,0,0l-0.7-0.7c-0.2-0.2-0.2-0.5,0-0.7c0.6-0.7,0.9-1.6,0.9-2.5c0-2.2-1.8-4-4-4s-4,1.8-4,4
		c0,0.9,0.3,1.8,0.9,2.5l0,0c0.2,0.2,0.1,0.5,0,0.7l-0.7,0.7c-0.2,0.2-0.5,0.2-0.7,0c0,0,0,0,0,0C5,13.2,4.5,11.9,4.5,10.5z"/>
</g>
</svg>
