<?xml version="1.0" encoding="utf-8"?>
<!-- Generator: Adobe Illustrator 21.1.0, SVG Export Plug-In . SVG Version: 6.00 Build 0)  -->
<svg version="1.1" id="Layer_1" xmlns="http://www.w3.org/2000/svg" xmlns:xlink="http://www.w3.org/1999/xlink" x="0px" y="0px"
	 width="18px" height="18px" viewBox="0 0 18 18" style="enable-background:new 0 0 18 18;" xml:space="preserve">
<style type="text/css">
	.st0{fill:#787878;}
</style>
<title>printer</title>
<desc>Created with Sketch.</desc>
<g id="printer">
	<path class="st0" d="M13.5,12h-9v1v1v2.5C4.5,16.8,4.7,17,5,17h8c0.3,0,0.5-0.2,0.5-0.5V14v-1V12z M3.5,12H3
		c-0.3,0-0.5-0.2-0.5-0.5S2.7,11,3,11h12c0.3,0,0.5,0.2,0.5,0.5S15.3,12,15,12h-0.5v1H15c1.1,0,2-0.9,2-2V7.5c0-1.1-0.9-2-2-2H3
		c-1.1,0-2,0.9-2,2V11c0,1.1,0.9,2,2,2h0.5V12z M3.5,14H3c-1.7,0-3-1.3-3-3V7.5c0-1.7,1.3-3,3-3h0V4c0-1.7,1.3-3,3-3h6
		c1.7,0,3,1.3,3,3v0.5h0c1.7,0,3,1.3,3,3V11c0,1.7-1.3,3-3,3h-0.5v2.5c0,0.8-0.7,1.5-1.5,1.5H5c-0.8,0-1.5-0.7-1.5-1.5V14z M4,4.5
		h10V4c0-1.1-0.9-2-2-2H6C4.9,2,4,2.9,4,4V4.5z M6,13h6c0.3,0,0.5,0.2,0.5,0.5S12.3,14,12,14H6c-0.3,0-0.5-0.2-0.5-0.5S5.7,13,6,13z
		 M6,15h6c0.3,0,0.5,0.2,0.5,0.5S12.3,16,12,16H6c-0.3,0-0.5-0.2-0.5-0.5S5.7,15,6,15z M14.1,6.5h1.3c0.3,0,0.6,0.3,0.6,0.6v0.2
		C16,7.7,15.7,8,15.4,8h-1.3c-0.3,0-0.6-0.3-0.6-0.6V7.1C13.5,6.8,13.8,6.5,14.1,6.5z"/>
</g>
</svg>
