<?xml version="1.0" encoding="utf-8"?>
<!-- Generator: Adobe Illustrator 21.1.0, SVG Export Plug-In . SVG Version: 6.00 Build 0)  -->
<svg version="1.1" id="Layer_1" xmlns="http://www.w3.org/2000/svg" xmlns:xlink="http://www.w3.org/1999/xlink" x="0px" y="0px"
	 width="22px" height="22px" viewBox="0 0 22 22" style="enable-background:new 0 0 22 22;" xml:space="preserve">
<style type="text/css">
	.st0{fill:#333333;}
</style>
<title>search</title>
<desc>Created with Sketch.</desc>
<g id="search">
	<path class="st0" d="M14.7,13l6.7,6.7c0.2,0.2,0.2,0.5,0,0.7c0,0,0,0,0,0l-1,1c-0.2,0.2-0.5,0.2-0.7,0L13,14.7
		c-1.3,1-3,1.6-4.8,1.6C3.6,16.3,0,12.6,0,8.1S3.6,0,8.1,0s8.1,3.6,8.1,8.1C16.3,9.9,15.7,11.6,14.7,13z M8.1,13.9
		c3.2,0,5.8-2.6,5.8-5.8s-2.6-5.8-5.8-5.8S2.3,4.9,2.3,8.1S4.9,13.9,8.1,13.9z"/>
</g>
</svg>
