<?xml version="1.0" encoding="utf-8"?>
<!-- Generator: Adobe Illustrator 21.1.0, SVG Export Plug-In . SVG Version: 6.00 Build 0)  -->
<svg version="1.1" id="Layer_1" xmlns="http://www.w3.org/2000/svg" xmlns:xlink="http://www.w3.org/1999/xlink" x="0px" y="0px"
	 width="17px" height="18px" viewBox="0 0 17 18" style="enable-background:new 0 0 17 18;" xml:space="preserve">
<title>share-thin</title>
<desc>Created with Sketch.</desc>
<g id="share-thin">
	<path d="M11.1,14.1L6,11.3C5.4,11.7,4.8,12,4,12c-1.7,0-3-1.3-3-3s1.3-3,3-3c0.8,0,1.5,0.3,2,0.8l5.1-2.9C11,3.6,11,3.3,11,3
		c0-1.7,1.3-3,3-3s3,1.3,3,3s-1.3,3-3,3c-1,0-1.9-0.5-2.4-1.2L6.6,7.6C6.9,8,7,8.5,7,9c0,0.5-0.1,1-0.4,1.5l5,2.8
		C12.1,12.5,13,12,14,12c1.7,0,3,1.3,3,3s-1.3,3-3,3s-3-1.3-3-3C11,14.7,11,14.4,11.1,14.1z M4,11c1.1,0,2-0.9,2-2S5.1,7,4,7
		S2,7.9,2,9S2.9,11,4,11z M14,5c1.1,0,2-0.9,2-2s-0.9-2-2-2s-2,0.9-2,2S12.9,5,14,5z M14,17c1.1,0,2-0.9,2-2s-0.9-2-2-2s-2,0.9-2,2
		S12.9,17,14,17z"/>
</g>
</svg>
