<?xml version="1.0" encoding="utf-8"?>
<!-- Generator: Adobe Illustrator 16.0.0, SVG Export Plug-In . SVG Version: 6.00 Build 0)  -->
<!DOCTYPE svg PUBLIC "-//W3C//DTD SVG 1.1//EN" "http://www.w3.org/Graphics/SVG/1.1/DTD/svg11.dtd">
<svg version="1.1" id="Layer_1" xmlns="http://www.w3.org/2000/svg" xmlns:xlink="http://www.w3.org/1999/xlink" x="0px" y="0px"
	 width="24px" height="24px" viewBox="0 0 24 24" enable-background="new 0 0 24 24" xml:space="preserve">
<path d="M19,14c-1.559,0-2.937,0.732-3.854,1.854l-5.308-2.653C9.934,12.814,10,12.416,10,12c0-0.448-0.078-0.874-0.189-1.287
	l5.276-2.639C16.003,9.238,17.408,10,19,10c2.757,0,5-2.243,5-5s-2.243-5-5-5s-5,2.243-5,5c0,0.448,0.078,0.874,0.189,1.287
	L8.913,8.925C7.997,7.762,6.592,7,5,7c-2.757,0-5,2.243-5,5s2.243,5,5,5c1.625,0,3.057-0.792,3.971-1.996l5.245,2.622
	C14.089,18.065,14,18.521,14,19c0,2.757,2.243,5,5,5s5-2.243,5-5S21.757,14,19,14z M19,2c1.654,0,3,1.346,3,3s-1.346,3-3,3
	s-3-1.346-3-3S17.346,2,19,2z M5,15c-1.654,0-3-1.346-3-3s1.346-3,3-3s3,1.346,3,3c0,0.383-0.079,0.747-0.21,1.083l-0.222,0.444
	C7.043,14.405,6.094,15,5,15z M19,22c-1.654,0-3-1.346-3-3s1.346-3,3-3s3,1.346,3,3S20.654,22,19,22z"/>
</svg>
