<?xml version="1.0" encoding="utf-8"?>
<!-- Generator: Adobe Illustrator 16.0.0, SVG Export Plug-In . SVG Version: 6.00 Build 0)  -->
<!DOCTYPE svg PUBLIC "-//W3C//DTD SVG 1.1//EN" "http://www.w3.org/Graphics/SVG/1.1/DTD/svg11.dtd">
<svg version="1.1" id="Layer_1" xmlns="http://www.w3.org/2000/svg" xmlns:xlink="http://www.w3.org/1999/xlink" x="0px" y="0px"
	 width="20px" height="20px" viewBox="0 0 20 20" enable-background="new 0 0 20 20" xml:space="preserve">
<g>
	<path d="M7.745,4.734L4.506,7.126C3.953,7.534,3.5,7.786,3.5,7.683c0-0.1-0.562-0.183-1.25-0.183h-1C0.563,7.5,0,8.064,0,8.75
		v2.749c0,0.689,0.563,1.25,1.25,1.25h1c0.688,0,1.25-0.029,1.25-0.065s0.452,0.269,1.006,0.676l3.238,2.391
		c0.553,0.407,1.005,0.181,1.005-0.508v-10C8.75,4.556,8.298,4.326,7.745,4.734z"/>
	<path d="M10.686,8.984C11.018,9.209,11.25,9.57,11.25,10c0,0.432-0.232,0.793-0.564,1.018l0.912,0.891
		C12.145,11.45,12.5,10.769,12.5,10s-0.355-1.448-0.902-1.907L10.686,8.984z"/>
	<path d="M14.284,5.469l-0.896,0.876C14.373,7.258,15,8.552,15,10s-0.628,2.742-1.613,3.655l0.896,0.877
		C15.489,13.391,16.25,11.79,16.25,10C16.25,8.213,15.489,6.609,14.284,5.469z"/>
	<path d="M16.974,2.842l-0.897,0.876C17.721,5.31,18.75,7.537,18.75,10c0,2.466-1.029,4.69-2.674,6.282l0.897,0.876
		C18.838,15.342,20,12.807,20,10C20,7.192,18.838,4.658,16.974,2.842z"/>
</g>
</svg>
