<?xml version="1.0" encoding="utf-8"?>
<!-- Generator: Adobe Illustrator 16.0.0, SVG Export Plug-In . SVG Version: 6.00 Build 0)  -->
<!DOCTYPE svg PUBLIC "-//W3C//DTD SVG 1.1//EN" "http://www.w3.org/Graphics/SVG/1.1/DTD/svg11.dtd">
<svg version="1.1" id="Layer_1" xmlns="http://www.w3.org/2000/svg" xmlns:xlink="http://www.w3.org/1999/xlink" x="0px" y="0px"
	 width="53px" height="44px" viewBox="0 0 53 44" enable-background="new 0 0 53 44" xml:space="preserve">
<g>
	<path d="M53,5.078c-1.99,1.016-3.975,1.354-6.291,1.692c2.316-1.354,3.973-3.385,4.635-6.094c-1.99,1.354-4.308,2.03-6.959,2.709
		C42.402,1.354,39.416,0,36.438,0c-5.63,0-10.6,5.078-10.6,11.171c0,1.015,0,1.691,0.331,2.368C17.224,13.2,8.942,8.799,3.644,2.029
		C2.651,3.725,2.317,5.416,2.317,7.785c0,3.724,1.991,7.107,4.969,9.141c-1.656,0-3.312-0.678-4.969-1.356l0,0
		c0,5.416,3.647,9.818,8.615,10.833c-0.996,0.338-1.99,0.338-2.981,0.338c-0.665,0-1.326,0-1.988-0.338
		c1.323,4.401,5.3,7.784,10.269,7.784c-3.644,3.048-8.281,4.738-13.581,4.738c-0.995,0-1.657,0-2.651,0
		C4.969,41.97,10.599,44,16.563,44c19.875,0,30.808-16.922,30.808-31.477c0-0.338,0-1.015,0-1.354
		C49.688,9.477,51.678,7.446,53,5.078z"/>
</g>
</svg>
