<?xml version="1.0" encoding="utf-8"?>
<!-- Generator: Adobe Illustrator 21.1.0, SVG Export Plug-In . SVG Version: 6.00 Build 0)  -->
<svg version="1.1" id="Layer_1" xmlns="http://www.w3.org/2000/svg" xmlns:xlink="http://www.w3.org/1999/xlink" x="0px" y="0px"
	 width="27px" height="27px" viewBox="0 0 27 27" style="enable-background:new 0 0 27 27;" xml:space="preserve">
<style type="text/css">
	.st0{fill:#333333;}
</style>
<g>
	<path class="st0" d="M8.5,15.3c-0.2-0.7-0.4-1.5-0.3-2.3c0.2-2.5,2.3-4.5,4.7-4.8c2.7-0.3,5,1.4,5.7,3.8c0,0.2,0.2,0.3,0.3,0.3
		c0.3,0.1,0.5,0.2,0.8,0.4c0.4,0.2,0.9-0.1,0.8-0.5c-0.7-3.5-4-6.1-7.8-5.7c-3.2,0.3-5.8,2.9-6.2,6c-0.2,1.2,0,2.3,0.3,3.3
		c0.1,0.3,0.4,0.4,0.7,0.3c0.2,0,0.5-0.1,0.7-0.1C8.6,15.9,8.6,15.7,8.5,15.3z"/>
	<path class="st0" d="M22.3,20c0-0.3,0.1-0.6,0.1-0.9c0-3.5-2.9-6.4-6.4-6.4c-2.8,0-5.2,1.9-6.1,4.4c-0.3-0.1-0.7-0.2-1-0.2
		c-1.7,0-3.2,1.2-3.5,2.9c-1.8,0.1-3.3,1.7-3.3,3.5c0,2,1.6,3.6,3.6,3.6h15.6c2,0,3.6-1.6,3.6-3.6C24.9,21.8,23.8,20.5,22.3,20z
		 M21.3,25.2h-3.1H8.8H5.7c-1,0-1.8-0.8-1.8-1.8c0-0.9,0.7-1.7,1.6-1.8c0.1,0,0.1,0,0.2,0c1,0,1.4-0.1,1.4-1.1c0-0.1,0-0.3,0-0.4
		c0.2-0.8,0.9-1.4,1.7-1.4c0.3,0,0.5,0,0.7,0.2c0.2,0.1,0.5,0.2,0.7,0.4c0.5,0.4,1.1,0.3,1.1-0.2c0-0.1,0-0.2,0-0.4
		c0-0.2,0.1-0.4,0.1-0.6c0.5-2.1,2.3-3.6,4.5-3.6c2.6,0,4.6,2.1,4.6,4.6c0,0.3,0,0.5-0.1,0.8c-0.2,1.3-0.2,1.7,0.8,1.7
		c0.2,0,0.4,0,0.5,0.1c0.7,0.2,1.3,0.9,1.3,1.7C23.1,24.4,22.3,25.2,21.3,25.2z"/>
	<path class="st0" d="M5.3,13.4v0.1c0,0.4-0.3,0.7-0.7,0.7h-4c-0.4,0-0.7-0.3-0.7-0.7l0-0.1c0-0.4,0.3-0.7,0.7-0.7h4
		C5,12.8,5.3,13.1,5.3,13.4z"/>
	<path class="st0" d="M27,13.4v0.1c0,0.4-0.3,0.7-0.7,0.7h-4c-0.4,0-0.7-0.3-0.7-0.7v-0.1c0-0.4,0.3-0.7,0.7-0.7h4
		C26.7,12.8,27,13.1,27,13.4z"/>
	<path class="st0" d="M13.4,0l0.1,0c0.4,0,0.7,0.3,0.7,0.7v4c0,0.4-0.3,0.7-0.7,0.7h-0.1c-0.4,0-0.7-0.3-0.7-0.7v-4
		C12.8,0.3,13.1,0,13.4,0z"/>
	<path class="st0" d="M23,3.9L23,3.9c0.3,0.3,0.3,0.8,0.1,1l-2.8,2.8C20,8,19.6,8,19.3,7.8l-0.1-0.1C19,7.4,19,7,19.2,6.8l2.8-2.8
		C22.3,3.7,22.8,3.7,23,3.9z"/>
	<path class="st0" d="M3.9,4L3.9,4c0.3-0.3,0.8-0.3,1-0.1l2.8,2.8C8,7,8,7.4,7.8,7.7L7.7,7.8C7.4,8,7,8,6.8,7.8L3.9,4.9
		C3.7,4.7,3.7,4.3,3.9,4z"/>
</g>
</svg>
