<?xml version="1.0" encoding="utf-8"?>
<!-- Generator: Adobe Illustrator 19.2.1, SVG Export Plug-In . SVG Version: 6.00 Build 0)  -->
<svg version="1.1" id="Layer_1" xmlns="http://www.w3.org/2000/svg" xmlns:xlink="http://www.w3.org/1999/xlink" x="0px" y="0px"
	 viewBox="0 0 25 25" style="enable-background:new 0 0 25 25;" xml:space="preserve">
<style type="text/css">
	.st0{fill-rule:evenodd;clip-rule:evenodd;}
</style>
<g id="WA_Logo">
	<g>
		<path class="st0" d="M21.4,3.7C19,1.3,15.9,0,12.6,0C5.7,0,0.1,5.6,0.1,12.4c0,2.2,0.6,4.3,1.7,6.2L0,25.1l6.6-1.7
			c1.8,1,3.9,1.5,5.9,1.5h0c0,0,0,0,0,0c6.9,0,12.4-5.6,12.4-12.4C25,9.1,23.7,6,21.4,3.7z M12.6,22.8L12.6,22.8
			c-1.9,0-3.7-0.5-5.3-1.4l-0.4-0.2l-3.9,1l1-3.8L3.8,18c-1-1.6-1.6-3.6-1.6-5.5c0-5.7,4.6-10.3,10.4-10.3c2.8,0,5.4,1.1,7.3,3
			c2,2,3,4.6,3,7.3C22.9,18.2,18.3,22.8,12.6,22.8z M18.2,15.1c-0.3-0.2-1.8-0.9-2.1-1c-0.3-0.1-0.5-0.2-0.7,0.2
			c-0.2,0.3-0.8,1-1,1.2c-0.2,0.2-0.4,0.2-0.7,0.1c-0.3-0.2-1.3-0.5-2.5-1.5c-0.9-0.8-1.5-1.8-1.7-2.2c-0.2-0.3,0-0.5,0.1-0.6
			c0.1-0.1,0.3-0.4,0.5-0.5s0.2-0.3,0.3-0.5c0.1-0.2,0.1-0.4,0-0.5c-0.1-0.2-0.7-1.7-1-2.3C9.2,6.6,8.9,6.7,8.7,6.7
			c-0.2,0-0.4,0-0.6,0S7.6,6.8,7.3,7.1C7,7.4,6.2,8.2,6.2,9.7c0,1.5,1.1,3,1.3,3.2c0.2,0.2,2.2,3.3,5.3,4.7c0.7,0.3,1.3,0.5,1.8,0.7
			c0.7,0.2,1.4,0.2,2,0.1c0.6-0.1,1.8-0.8,2.1-1.5c0.3-0.7,0.3-1.3,0.2-1.5C18.7,15.3,18.5,15.2,18.2,15.1z"/>
	</g>
</g>
</svg>
