<svg xmlns="http://www.w3.org/2000/svg" width="72" height="25" viewBox="0 0 72 25"><g fill="#FFF"><path d="M0 18.336V6.663h4.51c.984 0 1.779.191 2.386.573.607.381 1.006.849 1.196 1.405.191.555.286 1.093.286 1.613 0 .579-.078 1.09-.233 1.535a2.56 2.56 0 0 1-.765 1.12c-.352.3-.812.532-1.378.694-.567.161-1.261.242-2.081.242h-.538l.503-2.081c.485-.012.86-.072 1.126-.182.266-.11.458-.28.574-.511a1.76 1.76 0 0 0 .174-.783c0-.485-.116-.847-.348-1.084-.231-.236-.658-.355-1.285-.355H2.638v9.487H0zm9.074 0V6.663h2.671v9.401h4.805l-.278 2.271H9.074z"/><path d="M14.615 18.336l4.182-11.673h2.531l4.163 11.673h-2.688l-.969-2.826h-3.667l-.966 2.826h-2.586zm4.205-4.96h2.375l-1.168-3.799-1.207 3.799zm7.699 4.96v-4.943l-3.833-6.73h2.881l2.357 4.545 2.377-4.545h2.706l-3.816 6.73v4.943h-2.672z"/></g><path fill="#AB001E" d="M38 0h34v25H38z"/><path fill="#FFF" d="M46.54 12.287l-.159.798c-.053.212-.053.319-.053.426 0 .159.053.319.158.532l2.175 3.936c.159.319.318.426.797.426h2.015c.265 0 .584-.16.265-.639l-2.704-4.468c.9-.584 1.909-1.383 1.909-3.191 0-2.287-1.272-3.617-4.138-3.617h-4.084c-.371 0-.478.106-.478.479v10.852c0 .372.106.479.478.479h1.697c.372 0 .478-.106.478-.479V8.776h1.751c1.114 0 1.644.426 1.644 1.437 0 .957-.424 1.223-.849 1.436-.532.212-.743-.053-.902.638m7.002 4.255l-.213 1.437c-.053.266.105.373.318.426.53.053 1.857.159 3.183.159 2.918 0 5.04-.957 5.04-3.67 0-1.596-.69-2.819-3.131-3.404l-1.378-.372c-.903-.267-1.327-.532-1.327-1.224 0-.958.902-1.117 1.751-1.117 1.113 0 2.281.106 2.758.106.478.053.584 0 .689-.426l.212-1.383c.053-.266-.105-.372-.317-.426a32.014 32.014 0 0 0-3.183-.159c-3.023 0-4.51 1.33-4.51 3.404 0 1.915 1.009 3.032 2.812 3.458l1.378.372c1.114.32 1.593.638 1.593 1.33 0 1.011-.689 1.224-2.388 1.224-.796 0-2.121-.106-2.599-.159-.476-.055-.635-.001-.688.424m11.351 1.384c0 .372.106.479.478.479h1.697c.371 0 .478-.106.478-.479V7.074c0-.372-.106-.479-.478-.479H65.37c-.371 0-.478.106-.478.479v10.852z"/></svg>