<?xml version="1.0" encoding="utf-8"?><!DOCTYPE svg PUBLIC "-//W3C//DTD SVG 1.1//EN" "http://www.w3.org/Graphics/SVG/1.1/DTD/svg11.dtd"><svg xmlns="http://www.w3.org/2000/svg" xmlns:xlink="http://www.w3.org/1999/xlink"><symbol viewBox="0 0 28 18" id="angle-down" xmlns="http://www.w3.org/2000/svg"><title>angle-down</title><path d="M14 16.1L26.9 3.2c.2-.2.2-.5 0-.7l-1.4-1.4c-.2-.2-.5-.2-.7 0L14 11.9 3.2 1.1c-.2-.2-.5-.2-.7 0L1.1 2.5c-.2.2-.2.5 0 .7L14 16.1z"/></symbol><symbol viewBox="0 0 18 28" id="angle-left" xmlns="http://www.w3.org/2000/svg"><title>angle-left</title><path d="M1 14L13.9 1.1c.2-.2.5-.2.7 0L16 2.5c.2.2.2.5 0 .7L5.2 14 16 24.8c.2.2.2.5 0 .7l-1.4 1.4c-.2.2-.5.2-.7 0L1 14z"/></symbol><symbol viewBox="0 0 18 28" id="angle-right" xmlns="http://www.w3.org/2000/svg"><title>angle-right</title><path d="M16.1 14L3.2 1.1c-.2-.2-.5-.2-.7 0L1.1 2.5c-.2.2-.2.5 0 .7L11.9 14 1.1 24.8c-.2.2-.2.5 0 .7l1.4 1.4c.2.2.5.2.7 0L16.1 14z"/></symbol><symbol viewBox="0 0 12.9 20" id="arrow-upwards" xmlns="http://www.w3.org/2000/svg"><path d="M12.9 6.8L6.5 0 0 6.8l1.5 1.4 4-4.2v16h2V4l4 4.2z"/></symbol><symbol viewBox="0 0 20 20" id="audio" xmlns="http://www.w3.org/2000/svg"><title>audio</title><path d="M0 12.7V7.5c0-.3.2-.5.5-.5h3.7c.3 0 .5-.1.7-.3l3.2-3.1c.1-.1.4-.1.5 0 .1.1.1.2.1.3v12.6c0 .2-.2.4-.4.4-.1 0-.2 0-.3-.1l-3.2-3.2c-.2-.2-.4-.3-.7-.3H.5c-.3-.1-.5-.3-.5-.6zM16.8 2.6C18.9 4.7 20 7.2 20 10c0 2.8-1.1 5.3-3.2 7.4-.2.2-.5.2-.7 0l-.7-.7c-.2-.2-.2-.5 0-.7 1.7-1.7 2.6-3.7 2.6-6s-.9-4.3-2.6-5.9c-.2-.2-.2-.5 0-.7l.7-.7c.2-.3.5-.3.7-.1zm-.4 7.5c0 1.9-.7 3.5-2.1 4.9-.2.2-.5.2-.7 0l-.7-.7c-.2-.2-.2-.5 0-.7 1-.9 1.5-2 1.5-3.4s-.5-2.5-1.5-3.4c-.2-.2-.2-.5 0-.7l.7-.7c.2-.2.5-.2.7 0 1.4 1.1 2.1 2.8 2.1 4.7zm-3.5 0c0 1-.4 1.8-1.1 2.4-.2.2-.5.1-.7 0l-.4-.5c-.2-.2-.2-.5 0-.7.4-.3.6-.7.6-1.2s-.2-.9-.6-1.2c-.2-.2-.3-.5-.1-.7v-.1l.4-.4c.2-.2.5-.2.7 0 .8.6 1.2 1.4 1.2 2.4z"/></symbol><symbol viewBox="0 0 12.1 21" id="back" xmlns="http://www.w3.org/2000/svg"><path d="M12.1 1.6L10.5 0 1.6 8.9 0 10.5l1.6 1.6 8.9 8.9 1.6-1.6-8.9-8.9z"/></symbol><symbol viewBox="0 0 18 18" id="camera" xmlns="http://www.w3.org/2000/svg"><title>camera</title><path d="M.5 4.6h10.8c.3 0 .5.2.5.5v7.2c0 .3-.2.5-.5.5H.5c-.3 0-.5-.2-.5-.5V5.1c0-.3.2-.5.5-.5zm1.6 1.6v2.1h3.1V6.2H2.1zm10.8 3.1V8.2c0-.3.1-.6.4-.8l4.2-3.3c.2-.1.4-.1.5.1V13.1c0 .2-.2.4-.4.4-.1 0-.2 0-.2-.1l-4.2-3.3c-.2-.2-.3-.5-.3-.8z"/></symbol><symbol id="car" viewBox="0 0 22.7 19.2" xmlns="http://www.w3.org/2000/svg"><style>.ahst0{fill:#333}</style><path class="ahst0" d="M21.7 6.4L18.5 0H4.3L1.1 6.4C.5 6.4 0 6.9 0 7.5v7.1c0 .6.5 1.1 1.1 1.1h1.1v1.8c0 1 .8 1.8 1.8 1.8h.7c1 0 1.8-.8 1.8-1.8v-1.8h10v1.8c0 1 .8 1.8 1.8 1.8h.7c1 0 1.8-.8 1.8-1.8v-1.8h1.1c.6 0 1.1-.5 1.1-1.1V7.5c-.3-.6-.7-1.1-1.3-1.1zM5.6 2.1h11.6l2.1 4.3H3.5l2.1-4.3zM4.3 12.8c-1.2 0-2.1-1-2.1-2.1s1-2.1 2.1-2.1 2.1 1 2.1 2.1-1 2.1-2.1 2.1zm14.2 0c-1.2 0-2.1-1-2.1-2.1s1-2.1 2.1-2.1c1.2 0 2.1 1 2.1 2.1s-.9 2.1-2.1 2.1z"/></symbol><symbol id="checkmark" viewBox="0 0 15 11" xmlns="http://www.w3.org/2000/svg"><style>.aist0{fill:#ccc}</style><title>checkmark</title><path class="aist0" d="M5.5 10.6l9.2-9.2c.2-.2.2-.5 0-.7l-.4-.4c-.2-.2-.5-.2-.7 0L5.5 8.4l-4-4c-.2-.2-.5-.2-.7 0l-.4.4c-.2.2-.2.5 0 .7l5.1 5.1z" id="aicheckmark"/></symbol><symbol viewBox="0 0 13 13" id="clock" xmlns="http://www.w3.org/2000/svg"><title>clock</title><path d="M7.4 5.9V2c0-.1-.1-.2-.2-.2H5.9c-.2-.1-.3 0-.3.2v3.6H3.7c-.1 0-.2.1-.2.2V7c0 .1.1.2.2.2h3.4c.1 0 .2-.1.2-.2V5.9zM6.5 13C2.9 13 0 10.1 0 6.5S2.9 0 6.5 0 13 2.9 13 6.5 10.1 13 6.5 13z"/></symbol><symbol viewBox="0 0 32 32" id="close" xmlns="http://www.w3.org/2000/svg"><title>close</title><path d="M13.1 16L.1 3c-.1-.2-.1-.5 0-.7L2.3.1c.2-.1.5-.1.7 0l13 13 13-13c.2-.2.5-.2.7 0l2.2 2.2c.1.2.1.5 0 .7l-13 13 13 13c.2.2.2.5 0 .7l-2.2 2.2c-.2.2-.5.2-.7 0l-13-13-13 13c-.2.2-.5.2-.7 0L.1 29.7c-.1-.2-.1-.5 0-.7l13-13z"/></symbol><symbol viewBox="0 0 20 23" id="download" xmlns="http://www.w3.org/2000/svg"><title>download</title><path d="M8.9 13.6V2.5c0-.3.3-.5.5-.5h1.1c.3 0 .5.2.5.5v11.1l3.3-3.3c.2-.2.5-.2.7 0l.9.9c.2.2.2.5 0 .7l-6 6-6-6c-.2-.2-.2-.5 0-.7l.9-.9c.2-.2.5-.2.7 0l3.4 3.3zM.5 19.9h19c.3 0 .5.2.5.5v1.1c0 .3-.2.5-.5.5H.5c-.3 0-.5-.2-.5-.5v-1.1c0-.3.2-.5.5-.5z"/></symbol><symbol viewBox="0 0 16 16" id="external-link" xmlns="http://www.w3.org/2000/svg"><title>external-link</title><path d="M12.6 2H7.7c-.3 0-.5-.3-.5-.5v-1c0-.3.2-.5.5-.5H16v8.3c0 .3-.2.5-.5.5h-1c-.3 0-.5-.2-.5-.5V3.4L1.6 15.8c-.2.2-.5.2-.7 0L.1 15c-.2-.2-.2-.5 0-.7L12.6 2z"/></symbol><symbol viewBox="-280 224 26 43" id="f_facebook" xmlns="http://www.w3.org/2000/svg"><path d="M-272.9 266.6v-16.2h-6.5v-9.8h6.5v-6.5c0-6.8 3.9-9.8 9.8-9.8h6.5v9.8h-3.2c-2 0-3.2 1.3-3.2 3.2v3.2h8.5l-2 9.8h-6.5v16.3h-9.9z"/></symbol><symbol viewBox="0 0 52 52" id="facebook" xmlns="http://www.w3.org/2000/svg"><path d="M49.727 0H2.275C.976 0 0 .976 0 2.275v47.774C0 51.025.976 52 2.275 52H26V35.75h-6.5V26H26v-6.5c0-6.824 3.899-9.75 9.75-9.75h6.5v9.75H39c-1.952 0-3.25 1.3-3.25 3.25V26h8.451l-1.951 9.75h-6.5V52h13.975C51.023 52 52 51.025 52 49.725V2.274C52 .976 51.023 0 49.727 0z"/></symbol><symbol id="filter" viewBox="0 0 24 24" xmlns="http://www.w3.org/2000/svg"><style>.apst0{fill:#8c8c8c}</style><title>filter</title><path class="apst0" d="M2.7 18.3c.5-1.8 2.2-3.2 4.2-3.2 2.4 0 4.4 2 4.4 4.4S9.4 24 6.9 24c-2 0-3.7-1.3-4.2-3.2H.5c-.3 0-.5-.2-.5-.5v-1.5c0-.3.2-.5.5-.5h2.2zm0-15.1C3.3 1.3 4.9 0 6.9 0c2.4 0 4.4 2 4.4 4.4s-2 4.4-4.4 4.4c-2 0-3.7-1.3-4.2-3.2H.5c-.3.1-.5-.1-.5-.4V3.7c0-.3.2-.5.5-.5h2.2zm7.6 7.5c.5-1.8 2.2-3.2 4.2-3.2 2.4 0 4.4 2 4.4 4.4s-2 4.4-4.4 4.4c-2 0-3.7-1.3-4.2-3.2H.5c-.3.2-.5-.1-.5-.3v-1.5c0-.3.2-.5.5-.5h9.8zm2.3 7.6h10.9c.3 0 .5.2.5.5v1.5c0 .3-.2.5-.5.5H12.6v-2.5zm7.6-7.6h3.3c.3 0 .5.2.5.5v1.5c0 .3-.2.5-.5.5h-3.3v-2.5zm-7.6-7.5h10.9c.3 0 .5.2.5.5v1.5c0 .3-.2.5-.5.5H12.6V3.2zm1.9 11c1.2 0 2.2-1 2.2-2.2s-1-2.2-2.2-2.2-2.2 1-2.2 2.2 1 2.2 2.2 2.2zM6.9 6.6c1.2 0 2.2-1 2.2-2.2s-1-2.2-2.2-2.2-2.2 1-2.2 2.2 1 2.2 2.2 2.2zm0 15.2c1.2 0 2.2-1 2.2-2.2s-1-2.2-2.2-2.2-2.2 1-2.2 2.2 1 2.2 2.2 2.2z" id="apfilter"/></symbol><symbol viewBox="0 0 13 18" id="hourglass" xmlns="http://www.w3.org/2000/svg"><title>hourglass</title><path d="M1.5 14.5v-1c0-2.2 1.4-4.1 3.4-4.8-2-.6-3.4-2.5-3.4-4.7v-.5H1C.7 3.5.5 3.3.5 3v-.5c0-.3.2-.5.5-.5h11c.3 0 .5.2.5.5V3c0 .3-.2.5-.5.5h-.5V4c0 2.2-1.4 4.1-3.4 4.8 2 .7 3.4 2.5 3.4 4.8v1h.5c.3 0 .5.2.5.5v.5c0 .3-.2.5-.5.5H1c-.3 0-.5-.2-.5-.5V15c0-.3.2-.5.5-.5h.5zm1.7 0c.5-1.7 1.6-2.5 3.3-2.5s2.8.8 3.3 2.5h.2v-.4c0-2.2-1.4-4.1-3.5-4.1S3 11.8 3 14.1v.4h.2zM3 3.5v.1c0 .9.3 1.7.7 2.4h5.6c.5-.7.7-1.5.7-2.4v-.1H3z"/></symbol><symbol viewBox="0 0 52 52" id="instagram" xmlns="http://www.w3.org/2000/svg"><defs><path id="ara" d="M26 4.7c6.9 0 7.8 0 10.5.2 2.5.1 3.9.5 4.8.8 1.2.5 2.1 1 3 1.9.9.9 1.5 1.8 1.9 3 .4.9.8 2.3.9 4.8.1 2.7.2 3.6.2 10.5s0 7.8-.2 10.5c-.1 2.5-.5 3.9-.9 4.8-.5 1.2-1 2.1-1.9 3-.9.9-1.8 1.5-3 1.9-.9.4-2.3.8-4.8.9-2.7.1-3.6.2-10.5.2s-7.8 0-10.5-.2c-2.5-.1-3.9-.5-4.8-.9-1.2-.5-2.1-1-3-1.9-.9-.9-1.5-1.8-1.9-3-.4-.8-.8-2.2-1-4.7-.1-2.7-.1-3.6-.1-10.5s0-7.8.2-10.5c.1-2.5.5-3.9.8-4.8.5-1.2 1-2.1 1.9-3 .9-.9 1.8-1.5 3-1.9 1-.4 2.4-.8 4.9-1 2.7-.1 3.6-.1 10.5-.1zM26 0c-7.1 0-7.9 0-10.7.2-2.8.1-4.7.5-6.3 1.2-1.7.6-3.2 1.5-4.6 3C2.9 5.8 2 7.3 1.4 9 .8 10.7.3 12.5.2 15.3 0 18.1 0 18.9 0 26s0 7.9.2 10.7c.1 2.8.6 4.7 1.2 6.3.7 1.7 1.6 3.2 3 4.6 1.4 1.4 2.9 2.3 4.6 3 1.7.6 3.5 1.1 6.3 1.2 2.8.2 3.6.2 10.7.2s7.9 0 10.7-.2c2.8-.1 4.7-.6 6.3-1.2 1.7-.7 3.2-1.6 4.6-3 1.4-1.4 2.3-2.9 3-4.6.6-1.7 1.1-3.5 1.2-6.3.2-2.8.2-3.6.2-10.7s0-7.9-.2-10.7c-.1-2.8-.6-4.7-1.2-6.3-.7-1.7-1.6-3.2-3-4.6-1.4-1.4-2.9-2.3-4.6-3C41.3.8 39.5.3 36.7.2 33.9 0 33.1 0 26 0zm0 12.6c-7.4 0-13.4 6-13.4 13.4s6 13.4 13.4 13.4 13.4-6 13.4-13.4-6-13.4-13.4-13.4zm17-.5c0 1.7-1.4 3.1-3.1 3.1-1.7 0-3.1-1.4-3.1-3.1 0-1.7 1.4-3.1 3.1-3.1 1.7 0 3.1 1.4 3.1 3.1zM26 34.7c-4.8 0-8.7-3.9-8.7-8.7 0-4.8 3.9-8.7 8.7-8.7 4.8 0 8.7 3.9 8.7 8.7 0 4.8-3.9 8.7-8.7 8.7z"/></defs><use xlink:href="#ara" overflow="visible" fill-rule="evenodd" clip-rule="evenodd"/></symbol><symbol viewBox="0 0 55 46" id="mail" xmlns="http://www.w3.org/2000/svg"><title>mail</title><path d="M3.4 3h48.1l-24 17.2L3.4 3zM55 6.4v35.1c0 .6-.4 1-1 1H1c-.6 0-1-.4-1-1V6.4L27.5 27 55 6.4z"/></symbol><symbol id="more-hrz" viewBox="0 0 22 4" xmlns="http://www.w3.org/2000/svg"><style>.atst0{fill:#333}</style><title>more-hrz</title><path class="atst0" d="M11 4c-1.1 0-2-.9-2-2s.9-2 2-2 2 .9 2 2-.9 2-2 2zM4 4c-1.1 0-2-.9-2-2s.9-2 2-2 2 .9 2 2-.9 2-2 2zm14 0c-1.1 0-2-.9-2-2s.9-2 2-2 2 .9 2 2-.9 2-2 2z" id="atmore-hrz"/></symbol><symbol viewBox="0 0 18 18" id="multicam" xmlns="http://www.w3.org/2000/svg"><title>multicam</title><path d="M13 8l-1.5 1.5v-1c0-.8-.7-1.5-1.5-1.5H2.5V3.5c0-.3.2-.5.5-.5h9.5c.3 0 .5.2.5.5V8zm3.5 1.5V7.8c0-.4-.1-.7-.4-1-.5-.5-1.4-.5-1.9 0l-.1.1c-.1-.1-.1-.2-.1-.3v-.2c0-.3.1-.5.3-.7l3.1-3.1c.1-.1.4-.1.5 0 .1.1.1.2.1.3v7.2c0 .2-.2.4-.4.4-.1 0-.2 0-.3-.1l-.8-.9zm-12-5V6H7V4.5H4.5zM.5 8H10c.3 0 .5.2.5.5v6c0 .3-.2.5-.5.5H.5c-.3 0-.5-.2-.5-.5v-6c0-.3.2-.5.5-.5zM2 9.5V11h2.5V9.5H2zm9.5 2.1v-.2c0-.3.1-.5.3-.7l3.1-3.1c.1-.1.4-.1.5 0 .1.1.1.2.1.3v7.2c0 .2-.2.4-.4.4-.1 0-.2 0-.3-.1l-3.1-3.1c-.1-.2-.2-.4-.2-.7z"/></symbol><symbol viewBox="0 0 30 27.1" id="nouvo" xmlns="http://www.w3.org/2000/svg"><path d="M7.8 0l11.1 27.1h7.5L15.3 0zM26.6 0v27.1H30V0zM7.6 23.3V0H4.2v23.3l-1.6 2.3H0v1.5h12.1v-1.5H9.4z"/></symbol><symbol viewBox="0 0 23 23" id="pics" xmlns="http://www.w3.org/2000/svg"><title>pics</title><path d="M7.4 7.9l1-1.5c.2-.3.4-.4.7-.4h4.8c.3 0 .5.1.6.3l1 1.5h2.7c.4 0 .8.3.8.8v7.9c0 .4-.3.8-.8.8H4.8c-.4 0-.8-.3-.8-.8V8.6c0-.4.3-.8.8-.8h2.6zm4.1 7.5c1.8 0 3.3-1.5 3.3-3.3s-1.5-3.3-3.3-3.3-3.3 1.5-3.3 3.3 1.5 3.3 3.3 3.3zm0-1.4c-1 0-1.9-.8-1.9-1.9s.8-1.9 1.9-1.9 1.9.8 1.9 1.9-.9 1.9-1.9 1.9z"/></symbol><symbol viewBox="0 0 16 16" id="play" xmlns="http://www.w3.org/2000/svg"><title>play</title><path d="M3 1.4v13.2c0 .3.2.5.5.5.1 0 .2 0 .3-.1L15 8.3c.2-.1.2-.3.1-.5 0-.1-.1-.1-.1-.1L3.8 1c-.3-.2-.6-.1-.7.1-.1.1-.1.2-.1.3z"/></symbol><symbol id="podcast" viewBox="0 0 21 22" xmlns="http://www.w3.org/2000/svg"><style>.ayst0{fill:#333}</style><title>podcast</title><path class="ayst0" d="M9.7 12.4c-.7-.3-1.2-1-1.2-1.9 0-1.1.9-2 2-2s2 .9 2 2c0 .8-.5 1.6-1.2 1.9l1.2 8.6c0 .3-.2.5-.4.6h-3c-.3 0-.5-.2-.5-.5V21l1.1-8.6zm-6.6 4.8C1.4 15.2.5 13 .5 10.5.5 5 5 .5 10.5.5s10 4.5 10 10c0 2.5-.9 4.7-2.6 6.7-.2.2-.5.2-.7 0l-.7-.7c-.2-.2-.2-.5 0-.7 1.4-1.5 2-3.3 2-5.3 0-4.4-3.6-8-8-8s-8 3.6-8 8c0 2 .7 3.8 2 5.3.2.2.2.5 0 .7l-.7.7c-.2.2-.5.2-.7 0zm1.4-6.7c0-3.3 2.7-6 6-6s6 2.7 6 6c0 1.4-.5 2.7-1.4 3.8-.2.2-.5.2-.7.1l-.7-.7c-.2-.2-.2-.5 0-.7.6-.7.9-1.6.9-2.5 0-2.2-1.8-4-4-4s-4 1.8-4 4c0 .9.3 1.8.9 2.5.2.2.1.5 0 .7l-.7.7c-.2.2-.5.2-.7 0-1.1-1.2-1.6-2.5-1.6-3.9z" id="aypodcast"/></symbol><symbol id="printer" viewBox="0 0 18 18" xmlns="http://www.w3.org/2000/svg"><style>.azst0{fill:#787878}</style><title>printer</title><path class="azst0" d="M13.5 12h-9v4.5c0 .3.2.5.5.5h8c.3 0 .5-.2.5-.5V12zm-10 0H3c-.3 0-.5-.2-.5-.5s.2-.5.5-.5h12c.3 0 .5.2.5.5s-.2.5-.5.5h-.5v1h.5c1.1 0 2-.9 2-2V7.5c0-1.1-.9-2-2-2H3c-1.1 0-2 .9-2 2V11c0 1.1.9 2 2 2h.5v-1zm0 2H3c-1.7 0-3-1.3-3-3V7.5c0-1.7 1.3-3 3-3V4c0-1.7 1.3-3 3-3h6c1.7 0 3 1.3 3 3v.5c1.7 0 3 1.3 3 3V11c0 1.7-1.3 3-3 3h-.5v2.5c0 .8-.7 1.5-1.5 1.5H5c-.8 0-1.5-.7-1.5-1.5V14zM4 4.5h10V4c0-1.1-.9-2-2-2H6c-1.1 0-2 .9-2 2v.5zM6 13h6c.3 0 .5.2.5.5s-.2.5-.5.5H6c-.3 0-.5-.2-.5-.5s.2-.5.5-.5zm0 2h6c.3 0 .5.2.5.5s-.2.5-.5.5H6c-.3 0-.5-.2-.5-.5s.2-.5.5-.5zm8.1-8.5h1.3c.3 0 .6.3.6.6v.2c0 .4-.3.7-.6.7h-1.3c-.3 0-.6-.3-.6-.6v-.3c0-.3.3-.6.6-.6z" id="azprinter"/></symbol><symbol id="search" viewBox="0 0 22 22" xmlns="http://www.w3.org/2000/svg"><style>.bast0{fill:#333}</style><title>search</title><path class="bast0" d="M14.7 13l6.7 6.7c.2.2.2.5 0 .7l-1 1c-.2.2-.5.2-.7 0L13 14.7c-1.3 1-3 1.6-4.8 1.6-4.6 0-8.2-3.7-8.2-8.2S3.6 0 8.1 0s8.1 3.6 8.1 8.1c.1 1.8-.5 3.5-1.5 4.9zm-6.6.9c3.2 0 5.8-2.6 5.8-5.8s-2.6-5.8-5.8-5.8-5.8 2.6-5.8 5.8 2.6 5.8 5.8 5.8z" id="basearch"/></symbol><symbol viewBox="0 0 24 24" id="share" xmlns="http://www.w3.org/2000/svg"><path d="M19 14c-1.559 0-2.937.732-3.854 1.854l-5.308-2.653c.096-.387.162-.785.162-1.201a4.93 4.93 0 0 0-.189-1.287l5.276-2.639C16.003 9.238 17.408 10 19 10c2.757 0 5-2.243 5-5s-2.243-5-5-5-5 2.243-5 5c0 .448.078.874.189 1.287L8.913 8.925C7.997 7.762 6.592 7 5 7c-2.757 0-5 2.243-5 5s2.243 5 5 5c1.625 0 3.057-.792 3.971-1.996l5.245 2.622A4.922 4.922 0 0 0 14 19c0 2.757 2.243 5 5 5s5-2.243 5-5-2.243-5-5-5zm0-12c1.654 0 3 1.346 3 3s-1.346 3-3 3-3-1.346-3-3 1.346-3 3-3zM5 15c-1.654 0-3-1.346-3-3s1.346-3 3-3 3 1.346 3 3c0 .383-.079.747-.21 1.083l-.222.444A2.992 2.992 0 0 1 5 15zm14 7c-1.654 0-3-1.346-3-3s1.346-3 3-3 3 1.346 3 3-1.346 3-3 3z"/></symbol><symbol viewBox="0 0 17 18" id="share-thin" xmlns="http://www.w3.org/2000/svg"><title>share-thin</title><path d="M11.1 14.1L6 11.3c-.6.4-1.2.7-2 .7-1.7 0-3-1.3-3-3s1.3-3 3-3c.8 0 1.5.3 2 .8l5.1-2.9c-.1-.3-.1-.6-.1-.9 0-1.7 1.3-3 3-3s3 1.3 3 3-1.3 3-3 3c-1 0-1.9-.5-2.4-1.2l-5 2.8c.3.4.4.9.4 1.4 0 .5-.1 1-.4 1.5l5 2.8c.5-.8 1.4-1.3 2.4-1.3 1.7 0 3 1.3 3 3s-1.3 3-3 3-3-1.3-3-3c0-.3 0-.6.1-.9zM4 11c1.1 0 2-.9 2-2s-.9-2-2-2-2 .9-2 2 .9 2 2 2zm10-6c1.1 0 2-.9 2-2s-.9-2-2-2-2 .9-2 2 .9 2 2 2zm0 12c1.1 0 2-.9 2-2s-.9-2-2-2-2 .9-2 2 .9 2 2 2z"/></symbol><symbol viewBox="0 0 20 20" id="sound" xmlns="http://www.w3.org/2000/svg"><path d="M7.745 4.734L4.506 7.126c-.553.408-1.006.66-1.006.557 0-.1-.562-.183-1.25-.183h-1C.563 7.5 0 8.064 0 8.75v2.749c0 .689.563 1.25 1.25 1.25h1c.688 0 1.25-.029 1.25-.065s.452.269 1.006.676l3.238 2.391c.553.407 1.005.181 1.005-.508v-10c.001-.687-.451-.917-1.004-.509zM10.686 8.984c.332.225.564.586.564 1.016 0 .432-.232.793-.564 1.018l.912.891c.547-.459.902-1.14.902-1.909s-.355-1.448-.902-1.907l-.912.891zM14.284 5.469l-.896.876C14.373 7.258 15 8.552 15 10s-.628 2.742-1.613 3.655l.896.877A6.216 6.216 0 0 0 16.25 10a6.22 6.22 0 0 0-1.966-4.531z"/><path d="M16.974 2.842l-.897.876A8.726 8.726 0 0 1 18.75 10a8.718 8.718 0 0 1-2.674 6.282l.897.876A9.962 9.962 0 0 0 20 10a9.963 9.963 0 0 0-3.026-7.158z"/></symbol><symbol viewBox="0 0 53 44" id="twitter" xmlns="http://www.w3.org/2000/svg"><path d="M53 5.078c-1.99 1.016-3.975 1.354-6.291 1.692 2.316-1.354 3.973-3.385 4.635-6.094-1.99 1.354-4.308 2.03-6.959 2.709C42.402 1.354 39.416 0 36.438 0c-5.63 0-10.6 5.078-10.6 11.171 0 1.015 0 1.691.331 2.368-8.945-.339-17.227-4.74-22.525-11.51-.993 1.696-1.327 3.387-1.327 5.756 0 3.724 1.991 7.107 4.969 9.141-1.656 0-3.312-.678-4.969-1.356 0 5.416 3.647 9.818 8.615 10.833-.996.338-1.99.338-2.981.338-.665 0-1.326 0-1.988-.338 1.323 4.401 5.3 7.784 10.269 7.784-3.644 3.048-8.281 4.738-13.581 4.738H0C4.969 41.97 10.599 44 16.563 44c19.875 0 30.808-16.922 30.808-31.477v-1.354C49.688 9.477 51.678 7.446 53 5.078z"/></symbol><symbol id="weather" viewBox="0 0 27 27" xmlns="http://www.w3.org/2000/svg"><style>.bfst0{fill:#333}</style><path class="bfst0" d="M8.5 15.3c-.2-.7-.4-1.5-.3-2.3.2-2.5 2.3-4.5 4.7-4.8 2.7-.3 5 1.4 5.7 3.8 0 .2.2.3.3.3.3.1.5.2.8.4.4.2.9-.1.8-.5-.7-3.5-4-6.1-7.8-5.7-3.2.3-5.8 2.9-6.2 6-.2 1.2 0 2.3.3 3.3.1.3.4.4.7.3.2 0 .5-.1.7-.1.4-.1.4-.3.3-.7z"/><path class="bfst0" d="M22.3 20c0-.3.1-.6.1-.9 0-3.5-2.9-6.4-6.4-6.4-2.8 0-5.2 1.9-6.1 4.4-.3-.1-.7-.2-1-.2-1.7 0-3.2 1.2-3.5 2.9-1.8.1-3.3 1.7-3.3 3.5 0 2 1.6 3.6 3.6 3.6h15.6c2 0 3.6-1.6 3.6-3.6 0-1.5-1.1-2.8-2.6-3.3zm-1 5.2H5.7c-1 0-1.8-.8-1.8-1.8 0-.9.7-1.7 1.6-1.8h.2c1 0 1.4-.1 1.4-1.1v-.4c.2-.8.9-1.4 1.7-1.4.3 0 .5 0 .7.2.2.1.5.2.7.4.5.4 1.1.3 1.1-.2v-.4c0-.2.1-.4.1-.6.5-2.1 2.3-3.6 4.5-3.6 2.6 0 4.6 2.1 4.6 4.6 0 .3 0 .5-.1.8-.2 1.3-.2 1.7.8 1.7.2 0 .4 0 .5.1.7.2 1.3.9 1.3 1.7.1 1-.7 1.8-1.7 1.8zM5.3 13.4v.1c0 .4-.3.7-.7.7h-4c-.4 0-.7-.3-.7-.7v-.1c0-.4.3-.7.7-.7h4c.4.1.7.4.7.7zM27 13.4v.1c0 .4-.3.7-.7.7h-4c-.4 0-.7-.3-.7-.7v-.1c0-.4.3-.7.7-.7h4c.4.1.7.4.7.7zM13.4 0h.1c.4 0 .7.3.7.7v4c0 .4-.3.7-.7.7h-.1c-.4 0-.7-.3-.7-.7v-4c.1-.4.4-.7.7-.7zM23 3.9c.3.3.3.8.1 1l-2.8 2.8c-.3.3-.7.3-1 .1l-.1-.1c-.2-.3-.2-.7 0-.9L22 4c.3-.3.8-.3 1-.1zM3.9 4c.3-.3.8-.3 1-.1l2.8 2.8c.3.3.3.7.1 1l-.1.1c-.3.2-.7.2-.9 0L3.9 4.9c-.2-.2-.2-.6 0-.9z"/></symbol><symbol id="whatsapp" viewBox="0 0 25 25" xmlns="http://www.w3.org/2000/svg"><style>.bgst0{fill-rule:evenodd;clip-rule:evenodd}</style><path class="bgst0" d="M21.4 3.7C19 1.3 15.9 0 12.6 0 5.7 0 .1 5.6.1 12.4c0 2.2.6 4.3 1.7 6.2L0 25.1l6.6-1.7c1.8 1 3.9 1.5 5.9 1.5 6.9 0 12.4-5.6 12.4-12.4.1-3.4-1.2-6.5-3.5-8.8zm-8.8 19.1c-1.9 0-3.7-.5-5.3-1.4l-.4-.2-3.9 1 1-3.8-.2-.4c-1-1.6-1.6-3.6-1.6-5.5 0-5.7 4.6-10.3 10.4-10.3 2.8 0 5.4 1.1 7.3 3 2 2 3 4.6 3 7.3 0 5.7-4.6 10.3-10.3 10.3zm5.6-7.7c-.3-.2-1.8-.9-2.1-1-.3-.1-.5-.2-.7.2-.2.3-.8 1-1 1.2-.2.2-.4.2-.7.1-.3-.2-1.3-.5-2.5-1.5-.9-.8-1.5-1.8-1.7-2.2-.2-.3 0-.5.1-.6.1-.1.3-.4.5-.5s.2-.3.3-.5c.1-.2.1-.4 0-.5-.1-.2-.7-1.7-1-2.3-.2-.9-.5-.8-.7-.8h-.6c-.2 0-.5.1-.8.4-.3.3-1.1 1.1-1.1 2.6s1.1 3 1.3 3.2c.2.2 2.2 3.3 5.3 4.7.7.3 1.3.5 1.8.7.7.2 1.4.2 2 .1.6-.1 1.8-.8 2.1-1.5.3-.7.3-1.3.2-1.5-.2-.1-.4-.2-.7-.3z" id="bgWA_Logo"/></symbol></svg>