<svg id="Livello_1" xmlns="http://www.w3.org/2000/svg" viewBox="0 0 135.8 47"><style>.st0{fill:#ffc92f}.st1{fill:#fff}</style><path class="st0" d="M0 1.1h62.6V47H0z"/><path class="st1" d="M15.7 23.7l-.3 1.4c-.1.4-.1.6-.1.7 0 .3.1.6.3 1l4 7.2c.3.6.6.8 1.4.8h3.7c.5 0 1-.3.5-1.2l-4.9-8.2c1.7-1.1 3.5-2.5 3.5-5.8 0-4.2-2.4-6.6-7.6-6.6H8.7c-.7 0-.9.2-.9.9V34c0 .7.2.9.9.9h3.1c.7 0 .9-.2.9-.9V17.2h3.2c2 0 3 .7 3 2.6 0 1.7-.8 2.3-1.6 2.6-.9.5-1.3 0-1.6 1.3zm12.9 7.7l-.4 2.6c-.1.5.2.7.6.8 1 .1 3.4.3 5.8.3 5.4 0 9.3-1.8 9.3-6.8 0-2.9-1.3-5.1-5.7-6.3l-2.5-.6c-1.7-.4-2.5-1-2.5-2.2 0-1.8 1.6-2.1 3.2-2.1 2.1 0 4.2.2 5.1.2.9.1 1.1 0 1.3-.8l.4-2.5c.1-.5-.2-.7-.6-.8-1-.1-3.1-.3-5.9-.3-5.6 0-8.3 2.4-8.3 6.3 0 3.5 1.9 5.5 5.2 6.4l2.5.6c2.1.5 2.9 1.1 2.9 2.4 0 1.9-1.3 2.2-4.4 2.2-1.4 0-3.9-.2-4.7-.3-.9.1-1.2.2-1.3.9zM49.5 34c0 .7.2.9.9.9h3.1c.7 0 .9-.2.9-.9V14.1c0-.7-.2-.9-.9-.9h-3.1c-.7 0-.9.2-.9.9V34z"/><path class="st0" d="M98.3 26.3c-.2 0-.4 0-.6-.1l-26.1-8.1c-.8-.2-1.2-.8-1.2-1.6V10c0-.9.4-1.4 1.2-1.7L97.7.2c.2 0 .4-.1.6-.1.3 0 .6.1.8.3.2.2.3.5.3.8v4.5c0 .7-.5 1.3-1.2 1.5l-4.1 1.1v9.9l4.1 1.2c.7.2 1.2.8 1.2 1.5v4.2c0 .3-.1.6-.3.8-.2.3-.4.4-.8.4zm-9.8-16.2l-11.6 3.3 11.6 3.4v-6.7zm4.2 18.8c0-.3.1-.6.3-.8.2-.2.5-.3.8-.3.2 0 .4 0 .6.1l3.8 1.2c.7.2 1.2.8 1.2 1.5v15.1c0 .7-.6 1.3-1.3 1.3H71.7c-.7 0-1.3-.6-1.3-1.3v-4.5c0-.7.6-1.3 1.3-1.3h21v-11zm14.1-17.7c-.1.1-.3.1-.4.1-.6 0-1.1-.5-1.1-1.1v-.1l.5-6.2c0-.7.5-1.3 1.1-1.5.1-.1.3-.1.5-.2.8-.3 1.9-.6 3.1-1 1.3-.3 2.7-.7 4.2-.9 1.6-.3 3.2-.4 4.9-.4 5.2 0 9.1 1.2 11.9 3.7 2.8 2.5 4.1 6 4.1 10.5 0 2.6-.6 4.9-1.7 6.9s-2.5 3.6-4.2 4.9c-1.7 1.3-3.3 2.5-4.7 3.5-1 .7-1.9 1.4-3 2.1-1 .7-2 1.4-2.8 2.1-.8.7-1.6 1.5-2.2 2.2-.6.7-1.1 1.5-1.3 2.2h18.5c.9 0 1.6.7 1.6 1.6v.3l-.9 5.5c-.1.8-.8 1.4-1.6 1.4h-27.2c-.9 0-1.6-.7-1.6-1.6v-3.5c0-3.8 1-6.9 3-9.2 2-2.3 5.4-5.2 10.1-8.5 1.1-.8 2.1-1.5 3-2.1.9-.6 1.7-1.3 2.4-2s1.2-1.4 1.6-2.3c.4-.8.6-1.9.6-3.1 0-1.8-.6-3.2-1.7-4.2s-2.9-1.5-5.4-1.5c-1.7 0-3.8.2-6.2.7-2.2.7-3.9 1.3-5.1 1.7z"/></svg>