<svg id="Livello_1" xmlns="http://www.w3.org/2000/svg" viewBox="0 0 128.3 47"><style>.st0{fill:#ff9120}.st1{fill:#fff}</style><path class="st0" d="M98.8 26.2c-.2 0-.4 0-.6-.1L71.9 18c-.8-.2-1.3-.8-1.2-1.6V9.9c0-.9.4-1.4 1.2-1.7L98.1.1c.2-.1.4-.1.7-.1.3 0 .6.1.8.3.2.2.3.5.3.8v4.6c0 .7-.5 1.3-1.2 1.5l-4.1 1.1v9.9l4.1 1.2c.7.2 1.2.8 1.2 1.5v4.2c0 .3-.1.6-.3.8-.2.2-.5.3-.8.3zM88.9 10l-11.6 3.3 11.6 3.4V10zM0 .9h62.9V47H0z"/><path class="st1" d="M15.8 23.6l-.3 1.4c-.1.4-.1.6-.1.7 0 .3.1.6.3 1l4 7.3c.3.6.6.8 1.4.8h3.7c.5 0 1.1-.3.5-1.2l-5-8.2c1.7-1.1 3.5-2.5 3.5-5.8 0-4.2-2.4-6.6-7.6-6.6H8.7c-.7 0-.9.2-.9.9v20c0 .7.2.9.9.9h3.1c.7 0 .9-.2.9-.9V17.1H16c2 0 3 .7 3 2.6 0 1.7-.8 2.3-1.6 2.6-1 .5-1.3 0-1.6 1.3zm12.9 7.8l-.4 2.6c-.1.5.2.7.6.8 1 .1 3.5.3 5.9.3 5.4 0 9.3-1.8 9.3-6.8 0-3-1.3-5.2-5.8-6.3l-2.5-.6c-1.7-.4-2.5-1-2.5-2.2 0-1.8 1.6-2.1 3.2-2.1 2.1 0 4.2.2 5.1.2.9.1 1.1 0 1.3-.8l.4-2.5c.1-.5-.2-.7-.6-.8-1-.1-3.2-.3-5.9-.3-5.6 0-8.3 2.4-8.3 6.3 0 3.5 1.9 5.6 5.2 6.4l2.5.6c2.1.5 2.9 1.2 2.9 2.4 0 1.9-1.3 2.2-4.4 2.2-1.4 0-3.9-.2-4.8-.3-.8 0-1 .1-1.2.9zm21 2.6c0 .7.2.9.9.9h3.1c.7 0 .9-.2.9-.9V14c0-.7-.2-.9-.9-.9h-3.1c-.7 0-.9.2-.9.9v20z"/><path class="st0" d="M126.7.9h-4.1c-.6 0-1.5.2-2.1.3l-13.9 4.3c-.9.2-1.6 1.2-1.6 2.1v5c0 1 .8 1.9 2.2 1.5l10.7-3.3v34.5c0 .9.7 1.6 1.6 1.6h7.1c.9 0 1.7-.7 1.7-1.6V2.6c0-.9-.7-1.7-1.6-1.7zM93.1 28.8c0-.3.1-.6.3-.8.2-.2.5-.3.8-.3.2 0 .4 0 .6.1l3.8 1.2c.7.2 1.2.8 1.2 1.5v15.2c0 .7-.6 1.3-1.3 1.3H72c-.7 0-1.3-.6-1.3-1.3v-4.5c0-.7.6-1.3 1.3-1.3h21.1V28.8z"/></svg>