<svg id="Livello_1" xmlns="http://www.w3.org/2000/svg" viewBox="0 0 64.2 47"><style>.st0{fill:#af001e}.st1{fill:#fff}</style><path class="st0" d="M0 0h64.1v47H0z"/><path class="st1" d="M16.1 23.1l-.3 1.5c-.1.4-.1.6-.1.8 0 .3.1.6.3 1l4.1 7.4c.3.6.6.8 1.5.8h3.8c.5 0 1.1-.3.5-1.2L20.8 25c1.7-1.1 3.6-2.6 3.6-6 0-4.3-2.4-6.8-7.8-6.8H8.9c-.7 0-.9.2-.9.9v20.4c0 .7.2.9.9.9h3.2c.7 0 .9-.2.9-.9v-17h3.3c2.1 0 3.1.8 3.1 2.7 0 1.8-.8 2.3-1.6 2.7-1 .4-1.4-.1-1.7 1.2m13.2 8l-.4 2.7c-.1.5.2.7.6.8 1 .1 3.5.3 6 .3 5.5 0 9.5-1.8 9.5-6.9 0-3-1.3-5.3-5.9-6.4l-2.6-.7c-1.7-.5-2.5-1-2.5-2.3 0-1.8 1.7-2.1 3.3-2.1 2.1 0 4.3.2 5.2.2.9.1 1.1 0 1.3-.8l.4-2.6c.1-.5-.2-.7-.6-.8-1-.1-3.2-.3-6-.3-5.7 0-8.5 2.5-8.5 6.4 0 3.6 1.9 5.7 5.3 6.5l2.6.7c2.1.6 3 1.2 3 2.5 0 1.9-1.3 2.3-4.5 2.3-1.5 0-4-.2-4.9-.3s-1.2 0-1.3.8m21.4 2.6c0 .7.2.9.9.9h3.2c.7 0 .9-.2.9-.9V13.3c0-.7-.2-.9-.9-.9h-3.2c-.7 0-.9.2-.9.9v20.4z"/></svg>