<svg id="Layer_1" xmlns="http://www.w3.org/2000/svg" viewBox="0 0 49 17"><style>.st0{fill:#af001e}.st1{fill:#fff}</style><path class="st0" d="M0 0h49v16.9H0z"/><path class="st1" d="M3.1 11.2l-.2 1c0 .2.1.3.2.3.4.1 1.3.1 2.2.1 2 0 3.4-.7 3.4-2.5 0-1.1-.5-1.9-2.1-2.3l-.8-.3c-.7-.1-.9-.3-.9-.8 0-.7.6-.8 1.2-.8.7 0 1.5.1 1.8.1.3 0 .4 0 .5-.3l.2-.9c0-.2-.1-.3-.2-.3-.4 0-1.2-.1-2.2-.1-2.1 0-3.1.9-3.1 2.3 0 1.3.7 2.1 1.9 2.4l.9.2c.8.2 1.1.4 1.1.9 0 .7-.5.8-1.6.8H3.6c-.3-.1-.4 0-.5.2m9.7-2.8l-.1.5c0 .2-.1.2-.1.3 0 .1 0 .2.1.4l1.5 2.7c.1.2.2.3.5.3h1.4c.2 0 .4-.1.2-.4l-1.8-3c.6-.4 1.3-.9 1.3-2.2 0-1.6-.9-2.4-2.8-2.4h-2.8c-.2 0-.3.1-.3.3v7.4c0 .2.1.3.3.3h1.2c.3 0 .3-.1.3-.3V6h1.2c.7 0 1.1.3 1.1 1 0 .6-.3.8-.6 1-.3.1-.5-.1-.6.4m10.6 3.7V8c0-.3-.1-.3-.3-.3H21c-.2 0-.3.1-.3.3v.9c0 .2.1.3.3.3h.6V11H21c-1.7 0-2.1-1.1-2.1-2.6 0-1.9.7-2.4 2.3-2.4.5 0 1.1 0 1.5.1.3 0 .4 0 .5-.3l.2-.9c0-.3 0-.4-.3-.4-.1 0-.7-.1-1.9-.1-2.9 0-4.1 1.5-4.1 4s1 4.2 4 4.2c1.4 0 1.9-.1 2.1-.1.2-.1.2-.2.2-.4m3.2-.9l-.2 1c0 .2.1.3.2.3.4 0 1.3.1 2.2.1 2 0 3.4-.6 3.4-2.5 0-1.1-.5-1.9-2.1-2.3l-.9-.2c-.6-.2-.9-.4-.9-.8 0-.7.6-.8 1.2-.8.7-.1 1.5 0 1.8 0 .3 0 .4 0 .5-.3l.1-.9c0-.2-.1-.3-.2-.3-.4 0-1.2-.1-2.2-.1-2.1 0-3.1.9-3.1 2.3 0 1.3.7 2.1 1.9 2.4l.9.2c.8.2 1.1.4 1.1.9 0 .7-.5.8-1.6.8-.5 0-1.4-.1-1.8-.1-.2 0-.3.1-.3.3m6.4 0l-.1 1c0 .2.1.3.2.3.4 0 1.3.1 2.2.1 2 0 3.4-.6 3.4-2.5 0-1.1-.5-1.9-2.1-2.3l-.9-.2c-.6-.2-.9-.4-.9-.8 0-.7.6-.8 1.2-.8.8 0 1.6.1 1.9.1.3 0 .4 0 .5-.3l.2-.9c0-.2-.1-.3-.2-.3-.4 0-1.2-.1-2.2-.1-2.1 0-3.1.9-3.1 2.3 0 1.3.7 2.1 1.9 2.4l.9.2c.8.2 1.1.4 1.1.9 0 .7-.5.8-1.6.8-.5 0-1.4-.1-1.8-.1-.4-.1-.5 0-.6.2m9.7-2.8l-.1.5c0 .2-.1.2-.1.3 0 .1 0 .2.1.4l1.5 2.7c.1.2.2.3.5.3H46c.2 0 .4-.1.2-.4l-1.8-3c.6-.4 1.3-.9 1.3-2.2 0-1.6-.9-2.4-2.8-2.4h-2.8c-.3 0-.3.1-.3.3v7.4c0 .2.1.3.3.3h1.2c.3 0 .3-.1.3-.3V6h1.2c.7 0 1.1.3 1.1 1 0 .6-.3.8-.6 1-.3.1-.5-.1-.6.4"/></svg>