<svg id="Livello_1" xmlns="http://www.w3.org/2000/svg" viewBox="0 0 75.8 47"><style>.st0{fill:#a4bb1b}.st1{fill:#fff}</style><path class="st0" d="M75.2 24.5c0 .5-.4.9-.9.9h-13v5.3h11.9c.5 0 .9.4.9.9v3.3c0 .5-.4.9-.9.9H61.3v5.8h13.5c.5 0 .9.4.9.9v.1l-.4 3.4c0 .4-.4.8-.9.8H56.1c-.5 0-.9-.4-.9-.9V21.2c0-.5.4-.9.9-.9h18.2c.5 0 .9.4.9.9v3.3zM15.1 45.9c0 .5-.4.9-.9.9H9.9c-.5 0-.9-.4-.9-.9V25.5H.8c-.4-.1-.8-.5-.8-1v-3.4c0-.5.4-.9.9-.9h22.5c.5 0 .9.4.9.9v3.4c0 .5-.4.9-.9.9h-8.2l-.1 20.5zm14.4.8c-.5 0-.9-.4-.9-.9V21.2c0-.5.4-.9.9-.9h11c3.1 0 5.4.7 6.8 2.1 1.5 1.4 2.2 3.4 2.2 5.8 0 1.6-.3 2.9-.9 4-.6 1.1-1.3 1.8-2.2 2.3-.9.5-2.8.8-3.5.9L51 45.7c.1.1.1.3.1.4 0 .4-.3.7-.7.7h-4.8c-.5 0-1-.3-1.3-.7l-7.2-9.4c-.2-.3-.3-.6-.3-.9v-.4l.7-3c.1-.2.3-.4.5-.4 1.3 0 3.4-.3 4-.8.7-.5 1.1-1.4 1.1-2.8 0-1-.3-1.8-.8-2.4-.6-.5-1.6-.8-3-.8h-4.9v20.6c0 .5-.4.9-.9.9h-4zM0 0h22v16H0z"/><path class="st1" d="M5.5 7.9l-.1.5v.3c0 .1 0 .2.1.4l1.4 2.5c.1.2.2.3.5.3h1.3c.2 0 .4-.1.2-.4L7.1 8.6c.6-.4 1.2-.9 1.2-2 0-1.5-.8-2.3-2.6-2.3H3c-.2 0-.3.1-.3.3v7c0 .2.1.3.3.3h1.1c.2 0 .3-.1.3-.3v-6h1.1c.7 0 1.1.3 1.1.9 0 .6-.3.8-.5.9-.4.2-.5.1-.6.5m4.5 2.7l-.1.9c0 .2.1.2.2.3.3 0 1.2.1 2 .1 1.9 0 3.3-.6 3.3-2.4 0-1-.5-1.8-2-2.2l-.9-.2c-.6-.2-.9-.3-.9-.8 0-.6.6-.7 1.1-.7.7 0 1.5.1 1.8.1.3 0 .4 0 .4-.3l.1-.9c0-.2-.1-.2-.2-.3-.3 0-1.1-.1-2.1-.1-2 0-2.9.9-2.9 2.2 0 1.2.7 1.9 1.8 2.2l.9.2c.7.2 1 .4 1 .9 0 .7-.4.8-1.5.8-.5 0-1.4-.1-1.7-.1-.2 0-.2.1-.3.3m7.3.9c0 .2.1.3.3.3h1.1c.2 0 .3-.1.3-.3v-7c0-.2-.1-.3-.3-.3h-1.1c-.2 0-.3.1-.3.3v7z"/><path class="st0" d="M30.3 9.6c-.1-.2-.2-.3-.2-.6v-.2l.3-1.4c0-.1.2-.3.3-.3.5 0 .9-.1 1.2-.1.4-.1.8-.2 1.1-.4.3-.2.5-.4.7-.7.2-.3.2-.7.2-1.2 0-.8-.2-1.4-.6-1.7-.4-.4-1.1-.5-2.1-.5h-2.5v13.1c0 .3-.2.5-.5.5h-1.9c-.3 0-.5-.2-.5-.5V.5c.2-.3.4-.5.7-.5h5.4c1.8 0 3.1.4 3.9 1.3.8.8 1.2 2 1.2 3.4 0 .7-.1 1.3-.3 1.8-.2.5-.5.9-.9 1.3-.4.3-.8.6-1.2.8-.5.2-.9.3-1.4.4l4.7 6.5c.1.1.1.2.1.2 0 .2-.2.4-.4.4h-2.2c-.3 0-.6-.2-.8-.4l-4.3-6.1zm19.6 6c0 .2-.2.4-.5.4h-9c-.3 0-.5-.2-.5-.5V.5c0-.3.2-.5.5-.5h8.9c.3 0 .5.2.5.5v1.6c0 .3-.2.5-.5.5h-6.5v4h5.8c.3 0 .5.2.5.5v1.5c0 .3-.2.5-.5.5h-5.8v4.5h6.8c.3 0 .5.2.5.5v.1l-.2 1.4zm25.4 0c0 .2-.2.4-.5.4h-9c-.3 0-.5-.2-.5-.5V.5c0-.3.2-.5.5-.5h8.9c.3 0 .5.2.5.5v1.6c0 .3-.2.5-.5.5h-6.5v4H74c.3 0 .5.2.5.5v1.5c0 .2-.2.4-.5.4h-5.8v4.5H75c.3 0 .5.2.5.5v.1l-.2 1.5zm-16.3 0c0 .3-.2.5-.5.5h-2c-.3 0-.5-.2-.5-.5v-13h-4.3c-.3 0-.5-.2-.5-.5V.5c0-.3.2-.5.5-.5h11.5c.3 0 .5.2.5.5v1.6c0 .3-.2.5-.5.5h-4.3l.1 13z"/></svg>