<svg id="Livello_1" xmlns="http://www.w3.org/2000/svg" viewBox="0 0 75 47"><style>.st0{fill:#06a73b}.st1{fill:#fff}</style><path class="st0" d="M74.7 24.4c0 .5-.4.9-.9.9H62.1v5.2h10.6c.5 0 .9.4.9.9v3.3c0 .5-.4.9-.9.9H62.1v5.7h12.2c.5 0 .9.4.9.9v.1l-.4 3.3c-.1.4-.4.8-.9.8h-17c-.5 0-.9-.4-.9-.9V21c0-.5.4-.9.9-.9h16.9c.5 0 .9.4.9.9v3.4zm-52.4 2.5c-.6-1.7-1.5-3-2.6-4s-2.4-1.7-4-2.1c-1.5-.4-3.2-.6-5.1-.6H.8c-.4-.1-.8.3-.8.8v24.6c0 .5.4.9.9.9h9.8c1.9 0 3.5-.2 5.1-.6 1.5-.4 2.9-1.1 4-2.1s2-2.4 2.6-4c.6-1.7.9-3.8.9-6.4 0-2.7-.4-4.8-1-6.5m-6 11c-.4 1.3-1 2.3-2 2.8-.9.5-2.2.8-3.8.8H6V25.1h4.6c1 0 1.9.1 2.9.4 1 .3 1.8 1 2.4 2.2.6 1.2.9 3 .9 5.6.1 1.7-.1 3.3-.5 4.6m34.4-1c0 6.8-4 10.1-11.4 10.1s-11.4-3.3-11.4-10.1V21c0-.5.4-.9.9-.9h4.3c.5 0 .9.4.9.9v15.7c0 3.6 1.9 5.3 5.4 5.3 3.6 0 5.4-1.7 5.4-5.3V21c0-.5.4-.9.9-.9H50c.5 0 .9.4.9.9v15.9zM0 0h21.8v15.9H0z"/><path class="st1" d="M5.5 7.9l-.2.4v.3c0 .1 0 .2.1.4l1.4 2.5c.1.2.2.3.5.3h1.3c.2 0 .4-.1.2-.4L7.1 8.5c.6-.4 1.2-.9 1.2-2 0-1.5-.8-2.3-2.6-2.3H3c-.2 0-.3.1-.3.3v6.9c0 .2.1.3.3.3h1.1c.2 0 .3-.1.3-.3V5.6h1.1c.7 0 1 .3 1 .9 0 .6-.3.8-.5.9-.3.2-.4 0-.5.5m4.4 2.6l-.1.9c0 .2.1.2.2.3.3 0 1.2.1 2 .1 1.9 0 3.2-.6 3.2-2.4 0-1-.4-1.8-2-2.2l-.9-.2c-.6-.2-.9-.3-.9-.8 0-.6.6-.7 1.1-.7.7 0 1.5.1 1.8.1.3 0 .4 0 .4-.3l.3-.8c0-.2-.1-.2-.2-.3-.3 0-1.1-.1-2-.1-1.9 0-2.9.8-2.9 2.2 0 1.2.7 1.9 1.8 2.2l.9.2c.7.2 1 .4 1 .8 0 .7-.4.8-1.5.8-.5 0-1.4-.1-1.6-.1-.4.1-.5.1-.6.3m7.3.9c0 .2.1.3.3.3h1.1c.2 0 .3-.1.3-.3V4.5c0-.2-.1-.3-.3-.3h-1.1c-.2 0-.3.1-.3.3v6.9z"/><path class="st0" d="M30.1 9.5c-.1-.1-.2-.3-.2-.5v-.2l.3-1.4c0-.1.2-.3.3-.3.5 0 .9-.1 1.2-.1.4-.1.8-.2 1.1-.4.3-.2.5-.4.7-.7.2-.3.2-.7.2-1.2 0-.8-.2-1.4-.6-1.7-.4-.4-1.1-.5-2.1-.5h-2.4v13.1c0 .3-.2.5-.5.5h-1.9c-.3 0-.5-.2-.5-.5V.6c.1-.4.3-.6.6-.6h5.4c1.8 0 3.1.4 3.9 1.2.8.8 1.2 1.9 1.2 3.4 0 .7-.1 1.3-.3 1.8-.2.5-.5.9-.9 1.2-.4.3-.8.6-1.2.8-.5.2-.9.3-1.4.4l4.6 6.4c.1.1.1.2.1.2 0 .2-.2.4-.4.4h-2.2c-.3 0-.6-.2-.8-.4l-4.2-5.9zm19.5 6c0 .2-.2.4-.5.4h-9c-.3 0-.5-.2-.5-.5V.4c0-.3.2-.5.5-.5L49 0c.3 0 .5.2.5.5v1.6c0 .3-.2.5-.5.5h-6.4v4h5.8c.3 0 .5.2.5.5v1.5c0 .3-.2.5-.5.5h-5.8v4.5h6.7c.3 0 .5.2.5.5v.1l-.2 1.3zm25.2 0c0 .2-.2.4-.5.4h-9c-.3 0-.5-.2-.5-.5V.4c0-.3.2-.5.5-.5h8.9c.3 0 .5.2.5.5V2c0 .3-.2.5-.5.5h-6.4v4h5.8c.3 0 .5.2.5.5v1.5c0 .3-.2.5-.5.5h-5.8v4.5h6.7c.3 0 .5.2.5.5v.1l-.2 1.4zm-16.1 0c0 .3-.2.5-.5.5h-2c-.3 0-.5-.2-.5-.5V2.6h-4.3c-.3 0-.5-.2-.5-.5V.5c.1-.3.3-.5.6-.5H63c.3 0 .5.2.5.5v1.6c0 .3-.2.5-.5.5h-4.3v12.9z"/></svg>