<svg id="Livello_1" xmlns="http://www.w3.org/2000/svg" viewBox="0 0 75.8 47"><style>.st0{fill:#0074c2}.st1{fill:#fff}</style><path class="st0" d="M64.1 47c-1.9 0-3.5-.2-4.9-.7-1.4-.5-2.7-1.2-3.7-2.3-1-1.1-1.8-2.5-2.3-4.2-.5-1.7-.8-3.9-.8-6.5 0-3.8.6-6.7 1.8-8.8 1.2-2.1 2.7-3.4 4.6-4 1.8-.6 3.6-.9 5.4-.9 2.9 0 5.2.5 7 1.6 1.8 1.1 3 2.7 3.7 4.9.7 2.2 1 4.6 1 7.2 0 2.6-.3 4.8-.8 6.5-.5 1.7-1.3 3.2-2.3 4.2-1 1.1-2.2 1.8-3.7 2.3-1.5.5-3.1.7-5 .7m0-4.9c1.5 0 2.7-.3 3.5-1 .8-.7 1.3-1.7 1.6-3.1.3-1.4.4-3 .4-4.7 0-2.5-.2-4.4-.7-5.7-.5-1.3-1.1-2.1-2-2.5-.9-.4-1.8-.6-2.8-.6-1.5 0-2.7.3-3.5 1-.8.7-1.3 1.7-1.6 3.1-.2 1.4-.4 2.9-.4 4.6 0 1.7.1 3.1.3 4.3.2 1.1.5 2 1 2.7.4.7 1 1.2 1.7 1.4.7.3 1.5.5 2.5.5M0 0h21.8v15.9H0z"/><path class="st1" d="M5.5 7.9l-.2.4v.3c0 .1 0 .2.1.4l1.4 2.5c.1.2.2.3.5.3h1.3c.2 0 .4-.1.2-.4L7.1 8.5c.6-.4 1.2-.9 1.2-2 0-1.5-.8-2.3-2.6-2.3H3c-.2 0-.3.1-.3.3v6.9c0 .2.1.3.3.3h1.1c.2 0 .3-.1.3-.3V5.6h1.1c.7 0 1 .3 1 .9 0 .6-.3.8-.5.9-.3.2-.4 0-.5.5m4.4 2.6l-.1.9c0 .2.1.2.2.3.3 0 1.2.1 2 .1 1.9 0 3.2-.6 3.2-2.4 0-1-.4-1.8-2-2.2l-.9-.2c-.6-.2-.9-.3-.9-.8 0-.6.6-.7 1.1-.7.7 0 1.5.1 1.8.1.3 0 .4 0 .4-.3l.3-.8c0-.2-.1-.2-.2-.3-.3 0-1.1-.1-2-.1-1.9 0-2.9.8-2.9 2.2 0 1.2.7 1.9 1.8 2.2l.9.2c.7.2 1 .4 1 .8 0 .7-.4.8-1.5.8-.5 0-1.4-.1-1.6-.1-.4 0-.5.1-.6.3m7.3.9c0 .2.1.3.3.3h1.1c.2 0 .3-.1.3-.3V4.5c0-.2-.1-.3-.3-.3h-1.1c-.2 0-.3.1-.3.3v6.9z"/><path class="st0" d="M30.1 9.5c-.1-.1-.2-.3-.2-.5v-.2l.3-1.4c0-.1.2-.3.3-.3.5 0 .9-.1 1.2-.1.4-.1.8-.2 1.1-.4.3-.2.5-.4.7-.7.2-.3.2-.7.2-1.2 0-.8-.2-1.4-.6-1.7-.4-.4-1.1-.5-2.1-.5h-2.4v13.1c0 .3-.2.5-.5.5h-1.9c-.3 0-.5-.2-.5-.5V.6c.1-.4.3-.6.6-.6h5.4c1.8 0 3.1.4 3.9 1.2.8.8 1.2 1.9 1.2 3.4 0 .7-.1 1.3-.3 1.8-.2.5-.5.9-.9 1.2-.4.3-.8.6-1.2.8-.5.2-.9.3-1.4.4l4.6 6.4c.1.1.1.2.1.2 0 .2-.2.4-.4.4h-2.2c-.3 0-.6-.2-.8-.4l-4.2-5.9zm19.5 6c0 .2-.2.4-.5.4h-9c-.3 0-.5-.2-.5-.5V.4c0-.3.2-.5.5-.5L49 0c.3 0 .5.2.5.5v1.6c0 .3-.2.5-.5.5h-6.4v4h5.8c.3 0 .5.2.5.5v1.5c0 .3-.2.5-.5.5h-5.8v4.5h6.7c.3 0 .5.2.5.5v.1l-.2 1.3zm25.2 0c0 .2-.2.4-.5.4h-9c-.3 0-.5-.2-.5-.5V.4c0-.3.2-.5.5-.5h8.9c.3 0 .5.2.5.5V2c0 .3-.2.5-.5.5h-6.4v4h5.8c.3 0 .5.2.5.5v1.5c0 .3-.2.5-.5.5h-5.8v4.5h6.7c.3 0 .5.2.5.5v.1l-.2 1.4zm-16.1 0c0 .3-.2.5-.5.5h-2c-.3 0-.5-.2-.5-.5V2.6h-4.3c-.3 0-.5-.2-.5-.5V.5c.1-.3.3-.5.6-.5H63c.3 0 .5.2.5.5v1.6c0 .3-.2.5-.5.5h-4.3v12.9zM21.3 36.9C21.3 43.7 18 47 10.6 47 3.2 47 0 43.7 0 36.9V21c0-.5.4-.9.9-.9h4.3c.4 0 .8.4.8.9v15.7c0 3.6 1.1 5.3 4.6 5.3 3.6 0 4.6-1.7 4.6-5.3V21c0-.5.4-.9.9-.9h4.3c.5 0 .9.4.9.9v15.9zm20.9 0V21c0-.5.4-.9.9-.9h3.7c.5 0 .9.4.9.9v24.6c0 .5-.4.9-.9.9h-3.6c-.7 0-1.1-.2-1.4-.7L32.2 30v15.6c0 .5-.4.9-.9.9h-3.7c-.5 0-.9-.4-.9-.9V21c0-.5.4-.9.9-.9h3.6c.7 0 1.1.2 1.4.7l9.6 16.1z"/></svg>