<svg id="Layer_1" xmlns="http://www.w3.org/2000/svg" viewBox="0 0 34 25"><style>.st0{fill:#fff}</style><path class="st0" d="M0 0v24.9h34V0H0zm13.4 18.4h-2c-.4 0-.6-.1-.8-.4l-2.1-4c-.1-.2-.2-.4-.2-.6 0-.1 0-.2.1-.4l.2-.8c.2-.7.4-.5.9-.7.4-.2.8-.5.8-1.4 0-1-.5-1.4-1.6-1.4H6.9v9.1c0 .4-.1.5-.5.5H4.7c-.4 0-.5-.1-.5-.5V7.1c0-.4.1-.5.5-.5h4.1c2.8 0 4.1 1.3 4.1 3.6 0 1.8-1 2.6-1.9 3.2l2.7 4.4c.3.4 0 .6-.3.6zm5.4.1c-1.3 0-2.6-.1-3.2-.2-.2 0-.4-.1-.3-.4l.2-1.4c.1-.4.2-.5.7-.4.5 0 1.8.1 2.6.1 1.7 0 2.4-.2 2.4-1.2 0-.7-.5-1-1.6-1.3l-1.4-.4c-1.8-.5-2.8-1.6-2.8-3.5 0-2.1 1.5-3.4 4.5-3.4 1.5 0 2.7.1 3.2.2.2 0 .4.1.3.4l-.2 1.4c-.1.4-.2.5-.7.4-.5 0-1.6-.1-2.8-.1-.8 0-1.7.2-1.7 1.1 0 .7.4 1 1.3 1.2l1.4.3c2.4.6 3.1 1.8 3.1 3.4.1 2.8-2.1 3.8-5 3.8zm10.7-.6c0 .4-.1.5-.5.5h-1.7c-.4 0-.5-.1-.5-.5V7.1c0-.4.1-.5.5-.5H29c.4 0 .5.1.5.5v10.8z"/></svg>