<svg xmlns="http://www.w3.org/2000/svg" width="70" height="32" viewBox="0 0 70 32"><path fill="#AB001E" d="M0 0h43.437v32H0z"/><path fill="#FFF" d="M10.909 15.728l-.202 1.021c-.068.272-.068.409-.068.545 0 .204.068.409.203.681l2.779 5.038c.202.409.406.545 1.016.545h2.575c.339 0 .747-.204.339-.817l-3.456-5.719c1.152-.749 2.439-1.771 2.439-4.085 0-2.927-1.627-4.629-5.286-4.629H6.031c-.474 0-.609.136-.609.612v13.89c0 .477.135.613.609.613h2.168c.475 0 .61-.137.61-.613V11.234h2.236c1.423 0 2.1.545 2.1 1.838 0 1.226-.541 1.566-1.083 1.839-.678.273-.949-.068-1.153.817m8.946 5.447l-.272 1.838c-.067.341.136.477.407.545.677.068 2.372.204 4.065.204 3.728 0 6.438-1.226 6.438-4.697 0-2.043-.882-3.609-3.999-4.358l-1.761-.476c-1.153-.341-1.694-.682-1.694-1.566 0-1.226 1.152-1.43 2.235-1.43 1.423 0 2.914.136 3.524.136.609.068.746 0 .881-.545l.271-1.77c.068-.34-.136-.477-.406-.545a40.718 40.718 0 0 0-4.067-.204c-3.862 0-5.76 1.702-5.76 4.357 0 2.451 1.288 3.881 3.592 4.425l1.762.477c1.423.408 2.034.816 2.034 1.701 0 1.294-.881 1.566-3.05 1.566-1.016 0-2.709-.136-3.32-.204-.61-.067-.812.001-.88.546m14.501 1.77c0 .477.135.612.61.612h2.168c.474 0 .61-.136.61-.612V9.056c0-.477-.137-.613-.61-.613h-2.168c-.475 0-.61.137-.61.613v13.889zm14.501.203a.465.465 0 0 1-.474.478h-2.102a.464.464 0 0 1-.474-.478v-2.109c0-.273.203-.478.474-.478h2.102c.271 0 .474.204.474.478v2.109zm21.143 0a.466.466 0 0 1-.475.478h-2.102a.465.465 0 0 1-.474-.478v-6.331c0-.953-.406-1.43-1.287-1.43-.475 0-.948.068-1.288.205-.406.136-.609.272-.745.34l.068 7.216a.466.466 0 0 1-.475.478H61.12a.464.464 0 0 1-.474-.478V8.919c0-.272.203-.477.474-.477h2.102c.271 0 .475.205.475.477v4.63c.136-.068.271-.136.474-.204.203-.068.406-.204.609-.272.271-.067.476-.136.813-.204.271-.068.61-.068.949-.068.745 0 1.423.136 1.965.409.543.272.949.681 1.152 1.225.205.544.341 1.157.341 1.837v6.876zm-11.994.341c-.136.068-.407.068-.678.137-.678.136-1.355.204-2.033.204-.881 0-1.626-.068-2.236-.272a4.04 4.04 0 0 1-1.559-.953c-.406-.408-.677-1.021-.881-1.702-.203-.682-.271-1.566-.271-2.587 0-1.021.137-1.906.34-2.656.204-.68.542-1.293 1.017-1.702a4.575 4.575 0 0 1 1.694-.953c.677-.205 1.423-.272 2.371-.272.541 0 1.084.067 1.626.136.406.068.746.137 1.085.272.202.068.271.204.271.408v.137l-.34 1.361c-.067.204-.203.34-.406.34h-.136c-.338-.068-.609-.136-.881-.204-.406-.068-.745-.068-1.152-.068-.609 0-1.084.136-1.423.34-.339.205-.609.545-.745 1.09-.136.477-.204 1.089-.204 1.771 0 .952.137 1.634.406 2.179.272.477.543.748.95.885.406.068.813.137 1.151.137.746 0 1.491-.068 2.304-.204h.068c.136 0 .271.136.271.271l-.135 1.498c-.135.203-.271.34-.474.407"/></svg>