<?xml version="1.0" standalone="no"?>
<!DOCTYPE svg PUBLIC "-//W3C//DTD SVG 20010904//EN"
 "http://www.w3.org/TR/2001/REC-SVG-20010904/DTD/svg10.dtd">
<svg version="1.0" xmlns="http://www.w3.org/2000/svg"
 width="260.000000pt" height="260.000000pt" viewBox="0 0 260.000000 260.000000"
 preserveAspectRatio="xMidYMid meet">
<metadata>
Created by potrace 1.11, written by Peter Selinger 2001-2013
</metadata>
<g transform="translate(0.000000,260.000000) scale(0.100000,-0.100000)"
fill="#000000" stroke="none">
<path d="M12 1898 c-9 -9 -12 -146 -12 -587 0 -317 4 -582 9 -590 11 -17 236
-20 253 -3 8 8 11 151 11 485 l1 475 120 -3 c176 -3 220 -29 225 -136 4 -88
-43 -149 -127 -165 -35 -7 -46 -24 -60 -93 -19 -97 -13 -112 119 -349 109
-196 128 -223 154 -230 39 -11 256 -9 273 2 22 14 8 44 -111 237 -63 101 -126
204 -140 230 l-27 45 50 37 c97 72 142 165 143 291 0 194 -89 307 -274 350
-82 20 -588 23 -607 4z"/>
<path d="M1435 1891 c-179 -44 -271 -143 -283 -300 -8 -121 29 -225 105 -291
35 -31 121 -77 160 -85 67 -13 196 -52 240 -71 77 -34 103 -90 74 -162 -26
-63 -150 -79 -443 -58 -126 9 -121 14 -139 -118 -13 -96 -10 -106 38 -113 15
-2 114 -6 218 -8 220 -5 323 8 419 55 70 34 91 51 129 101 72 95 83 270 24
385 -20 39 -84 97 -137 124 -22 11 -98 37 -168 56 -173 48 -210 63 -232 92
-30 37 -27 102 5 134 43 44 84 48 378 37 86 -3 110 -1 117 11 10 16 34 145 32
174 -2 43 -22 46 -282 51 -150 3 -198 0 -255 -14z"/>
<path d="M2341 1891 c-12 -8 -14 -100 -14 -590 0 -427 3 -585 11 -593 13 -13
209 -18 241 -6 21 7 21 11 21 591 0 440 -3 586 -12 595 -14 14 -225 17 -247 3z"/>
</g>
</svg>
