<?xml version="1.0" encoding="utf-8"?>
<!-- Generator: Adobe Illustrator 19.2.1, SVG Export Plug-In . SVG Version: 6.00 Build 0)  -->
<svg version="1.1" id="Layer_1" xmlns="http://www.w3.org/2000/svg" xmlns:xlink="http://www.w3.org/1999/xlink" x="0px" y="0px"
	 viewBox="0 0 49 17" style="enable-background:new 0 0 49 17;" xml:space="preserve">
<style type="text/css">
	.st0{fill:#AF001E;}
	.st1{fill:#FFFFFF;}
</style>
<rect class="st0" width="49" height="16.9"/>
<path class="st1" d="M3.1,11.2l-0.2,1c0,0.2,0.1,0.3,0.2,0.3c0.4,0.1,1.3,0.1,2.2,0.1c2,0,3.4-0.7,3.4-2.5c0-1.1-0.5-1.9-2.1-2.3
	L5.8,7.5C5.1,7.4,4.9,7.2,4.9,6.7c0-0.7,0.6-0.8,1.2-0.8C6.8,5.9,7.6,6,7.9,6c0.3,0,0.4,0,0.5-0.3l0.2-0.9c0-0.2-0.1-0.3-0.2-0.3
	c-0.4,0-1.2-0.1-2.2-0.1c-2.1,0-3.1,0.9-3.1,2.3C3.1,8,3.8,8.8,5,9.1l0.9,0.2C6.7,9.5,7,9.7,7,10.2C7,10.9,6.5,11,5.4,11
	C4.8,11,3.9,11,3.6,11C3.3,10.9,3.2,11,3.1,11.2"/>
<path class="st1" d="M12.8,8.4l-0.1,0.5c0,0.2-0.1,0.2-0.1,0.3c0,0.1,0,0.2,0.1,0.4l1.5,2.7c0.1,0.2,0.2,0.3,0.5,0.3h1.4
	c0.2,0,0.4-0.1,0.2-0.4l-1.8-3c0.6-0.4,1.3-0.9,1.3-2.2c0-1.6-0.9-2.4-2.8-2.4h-2.8c-0.2,0-0.3,0.1-0.3,0.3v7.4
	c0,0.2,0.1,0.3,0.3,0.3h1.2c0.3,0,0.3-0.1,0.3-0.3V6h1.2c0.7,0,1.1,0.3,1.1,1c0,0.6-0.3,0.8-0.6,1C13.1,8.1,12.9,7.9,12.8,8.4"/>
<path class="st1" d="M23.4,12.1V8c0-0.3-0.1-0.3-0.3-0.3H21c-0.2,0-0.3,0.1-0.3,0.3v0.9c0,0.2,0.1,0.3,0.3,0.3h0.6V11
	c-0.1,0-0.3,0-0.6,0c-1.7,0-2.1-1.1-2.1-2.6c0-1.9,0.7-2.4,2.3-2.4c0.5,0,1.1,0,1.5,0.1c0.3,0,0.4,0,0.5-0.3l0.2-0.9
	c0-0.3,0-0.4-0.3-0.4c-0.1,0-0.7-0.1-1.9-0.1c-2.9,0-4.1,1.5-4.1,4c0,2.5,1,4.2,4,4.2c1.4,0,1.9-0.1,2.1-0.1
	C23.4,12.4,23.4,12.3,23.4,12.1"/>
<path class="st1" d="M26.6,11.2l-0.2,1c0,0.2,0.1,0.3,0.2,0.3c0.4,0,1.3,0.1,2.2,0.1c2,0,3.4-0.6,3.4-2.5c0-1.1-0.5-1.9-2.1-2.3
	l-0.9-0.2c-0.6-0.2-0.9-0.4-0.9-0.8c0-0.7,0.6-0.8,1.2-0.8C30.2,5.9,31,6,31.3,6c0.3,0,0.4,0,0.5-0.3l0.1-0.9c0-0.2-0.1-0.3-0.2-0.3
	c-0.4,0-1.2-0.1-2.2-0.1c-2.1,0-3.1,0.9-3.1,2.3c0,1.3,0.7,2.1,1.9,2.4l0.9,0.2c0.8,0.2,1.1,0.4,1.1,0.9c0,0.7-0.5,0.8-1.6,0.8
	c-0.5,0-1.4-0.1-1.8-0.1C26.7,10.9,26.6,11,26.6,11.2"/>
<path class="st1" d="M33,11.2l-0.1,1c0,0.2,0.1,0.3,0.2,0.3c0.4,0,1.3,0.1,2.2,0.1c2,0,3.4-0.6,3.4-2.5c0-1.1-0.5-1.9-2.1-2.3
	l-0.9-0.2c-0.6-0.2-0.9-0.4-0.9-0.8c0-0.7,0.6-0.8,1.2-0.8c0.8,0,1.6,0.1,1.9,0.1c0.3,0,0.4,0,0.5-0.3l0.2-0.9
	c0-0.2-0.1-0.3-0.2-0.3c-0.4,0-1.2-0.1-2.2-0.1c-2.1,0-3.1,0.9-3.1,2.3c0,1.3,0.7,2.1,1.9,2.4l0.9,0.2c0.8,0.2,1.1,0.4,1.1,0.9
	c0,0.7-0.5,0.8-1.6,0.8c-0.5,0-1.4-0.1-1.8-0.1C33.2,10.9,33.1,11,33,11.2"/>
<path class="st1" d="M42.7,8.4l-0.1,0.5c0,0.2-0.1,0.2-0.1,0.3c0,0.1,0,0.2,0.1,0.4l1.5,2.7c0.1,0.2,0.2,0.3,0.5,0.3h1.4
	c0.2,0,0.4-0.1,0.2-0.4l-1.8-3c0.6-0.4,1.3-0.9,1.3-2.2c0-1.6-0.9-2.4-2.8-2.4h-2.8c-0.3,0-0.3,0.1-0.3,0.3v7.4
	c0,0.2,0.1,0.3,0.3,0.3h1.2c0.3,0,0.3-0.1,0.3-0.3V6h1.2c0.7,0,1.1,0.3,1.1,1c0,0.6-0.3,0.8-0.6,1C43,8.1,42.8,7.9,42.7,8.4"/>
</svg>
