<?xml version="1.0" encoding="utf-8"?>
<!-- Generator: Adobe Illustrator 19.1.0, SVG Export Plug-In . SVG Version: 6.00 Build 0)  -->
<svg version="1.1" id="Livello_1" xmlns="http://www.w3.org/2000/svg" xmlns:xlink="http://www.w3.org/1999/xlink" x="0px" y="0px"
	 viewBox="0 0 128.3 47" style="enable-background:new 0 0 128.3 47;" xml:space="preserve">
<style type="text/css">
	.st0{fill:#FF9120;}
	.st1{fill:#FFFFFF;}
</style>
<g>
	<g>
		<g>
			<path class="st0" d="M98.8,26.2c-0.2,0-0.4,0-0.6-0.1l0,0L71.9,18c-0.8-0.2-1.3-0.8-1.2-1.6l0,0V9.9c0-0.9,0.4-1.4,1.2-1.7l0,0
				l26.2-8.1C98.3,0,98.5,0,98.8,0l0,0c0.3,0,0.6,0.1,0.8,0.3l0,0c0.2,0.2,0.3,0.5,0.3,0.8l0,0v4.6c0,0.7-0.5,1.3-1.2,1.5l0,0
				l-4.1,1.1v9.9l4.1,1.2c0.7,0.2,1.2,0.8,1.2,1.5l0,0v4.2c0,0.3-0.1,0.6-0.3,0.8l0,0C99.4,26.1,99.1,26.2,98.8,26.2L98.8,26.2
				C98.8,26.2,98.8,26.2,98.8,26.2L98.8,26.2z M88.9,10l-11.6,3.3l11.6,3.4V10z"/>
		</g>
		<g>
			<rect y="0.9" class="st0" width="62.9" height="46.1"/>
			<path class="st1" d="M15.8,23.6L15.5,25c-0.1,0.4-0.1,0.6-0.1,0.7c0,0.3,0.1,0.6,0.3,1l4,7.3c0.3,0.6,0.6,0.8,1.4,0.8h3.7
				c0.5,0,1.1-0.3,0.5-1.2l-5-8.2c1.7-1.1,3.5-2.5,3.5-5.8c0-4.2-2.4-6.6-7.6-6.6H8.7c-0.7,0-0.9,0.2-0.9,0.9v20
				c0,0.7,0.2,0.9,0.9,0.9h3.1c0.7,0,0.9-0.2,0.9-0.9V17.1H16c2,0,3,0.7,3,2.6c0,1.7-0.8,2.3-1.6,2.6C16.4,22.8,16.1,22.3,15.8,23.6
				z"/>
			<path class="st1" d="M28.7,31.4L28.3,34c-0.1,0.5,0.2,0.7,0.6,0.8c1,0.1,3.5,0.3,5.9,0.3c5.4,0,9.3-1.8,9.3-6.8
				c0-3-1.3-5.2-5.8-6.3l-2.5-0.6c-1.7-0.4-2.5-1-2.5-2.2c0-1.8,1.6-2.1,3.2-2.1c2.1,0,4.2,0.2,5.1,0.2c0.9,0.1,1.1,0,1.3-0.8
				l0.4-2.5c0.1-0.5-0.2-0.7-0.6-0.8c-1-0.1-3.2-0.3-5.9-0.3c-5.6,0-8.3,2.4-8.3,6.3c0,3.5,1.9,5.6,5.2,6.4l2.5,0.6
				c2.1,0.5,2.9,1.2,2.9,2.4c0,1.9-1.3,2.2-4.4,2.2c-1.4,0-3.9-0.2-4.8-0.3C29.1,30.5,28.9,30.6,28.7,31.4z"/>
			<path class="st1" d="M49.7,34c0,0.7,0.2,0.9,0.9,0.9h3.1c0.7,0,0.9-0.2,0.9-0.9V14c0-0.7-0.2-0.9-0.9-0.9h-3.1
				c-0.7,0-0.9,0.2-0.9,0.9V34z"/>
		</g>
		<path class="st0" d="M126.7,0.9h-4.1c-0.6,0-1.5,0.2-2.1,0.3l-13.9,4.3c-0.9,0.2-1.6,1.2-1.6,2.1v5c0,1,0.8,1.9,2.2,1.5l10.7-3.3
			v34.5c0,0.9,0.7,1.6,1.6,1.6h7.1c0.9,0,1.7-0.7,1.7-1.6V2.6C128.3,1.7,127.6,0.9,126.7,0.9z"/>
		<g>
			<path class="st0" d="M93.1,28.8c0-0.3,0.1-0.6,0.3-0.8l0,0c0.2-0.2,0.5-0.3,0.8-0.3l0,0c0,0,0,0,0,0h0c0.2,0,0.4,0,0.6,0.1l0,0
				l3.8,1.2c0.7,0.2,1.2,0.8,1.2,1.5l0,0l0,15.2c0,0.7-0.6,1.3-1.3,1.3l0,0H72l0,0c-0.7,0-1.3-0.6-1.3-1.3l0,0v-4.5
				c0-0.7,0.6-1.3,1.3-1.3l0,0h21.1L93.1,28.8z"/>
		</g>
	</g>
</g>
</svg>
