<?xml version="1.0" encoding="utf-8"?>
<!-- Generator: Adobe Illustrator 21.1.0, SVG Export Plug-In . SVG Version: 6.00 Build 0)  -->
<svg version="1.1" id="Livello_1" xmlns="http://www.w3.org/2000/svg" xmlns:xlink="http://www.w3.org/1999/xlink" x="0px" y="0px"
	 viewBox="0 0 75.8 47" style="enable-background:new 0 0 75.8 47;" xml:space="preserve">
<style type="text/css">
	.st0{fill:#A4BB1B;}
	.st1{fill:#FFFFFF;}
</style>
<g>
	<path class="st0" d="M75.2,24.5c0,0.5-0.4,0.9-0.9,0.9l-13,0v5.3l11.9,0c0.5,0,0.9,0.4,0.9,0.9v3.3c0,0.5-0.4,0.9-0.9,0.9H61.3v5.8
		l13.5,0c0.5,0,0.9,0.4,0.9,0.9c0,0,0,0.1,0,0.1L75.3,46c0,0.4-0.4,0.8-0.9,0.8l-18.3,0c-0.5,0-0.9-0.4-0.9-0.9V21.2
		c0-0.5,0.4-0.9,0.9-0.9h18.2c0.5,0,0.9,0.4,0.9,0.9V24.5z"/>
	<path class="st0" d="M15.1,45.9c0,0.5-0.4,0.9-0.9,0.9l-4.3,0c-0.5,0-0.9-0.4-0.9-0.9l0-20.4l-8.2,0C0.4,25.4,0,25,0,24.5v-3.4
		c0-0.5,0.4-0.9,0.9-0.9h22.5c0.5,0,0.9,0.4,0.9,0.9v3.4c0,0.5-0.4,0.9-0.9,0.9l-8.2,0L15.1,45.9z"/>
	<path class="st0" d="M29.5,46.7c-0.5,0-0.9-0.4-0.9-0.9V21.2c0-0.5,0.4-0.9,0.9-0.9l11,0c3.1,0,5.4,0.7,6.8,2.1
		c1.5,1.4,2.2,3.4,2.2,5.8c0,1.6-0.3,2.9-0.9,4c-0.6,1.1-1.3,1.8-2.2,2.3c-0.9,0.5-2.8,0.8-3.5,0.9L51,45.7c0.1,0.1,0.1,0.3,0.1,0.4
		c0,0.4-0.3,0.7-0.7,0.7l-4.8,0c-0.5,0-1-0.3-1.3-0.7l-7.2-9.4c-0.2-0.3-0.3-0.6-0.3-0.9c0-0.1,0-0.3,0-0.4l0.7-3
		c0.1-0.2,0.3-0.4,0.5-0.4c1.3,0,3.4-0.3,4-0.8c0.7-0.5,1.1-1.4,1.1-2.8c0-1-0.3-1.8-0.8-2.4c-0.6-0.5-1.6-0.8-3-0.8h-4.9v20.6
		c0,0.5-0.4,0.9-0.9,0.9L29.5,46.7z"/>
	<rect x="0" y="0" class="st0" width="22" height="16"/>
	<path class="st1" d="M5.5,7.9L5.4,8.4c0,0.1,0,0.2,0,0.3c0,0.1,0,0.2,0.1,0.4l1.4,2.5c0.1,0.2,0.2,0.3,0.5,0.3h1.3
		c0.2,0,0.4-0.1,0.2-0.4L7.1,8.6c0.6-0.4,1.2-0.9,1.2-2c0-1.5-0.8-2.3-2.6-2.3H3c-0.2,0-0.3,0.1-0.3,0.3v7c0,0.2,0.1,0.3,0.3,0.3
		h1.1c0.2,0,0.3-0.1,0.3-0.3V5.6h1.1c0.7,0,1.1,0.3,1.1,0.9c0,0.6-0.3,0.8-0.5,0.9C5.7,7.6,5.6,7.5,5.5,7.9"/>
	<path class="st1" d="M10,10.6l-0.1,0.9c0,0.2,0.1,0.2,0.2,0.3c0.3,0,1.2,0.1,2,0.1c1.9,0,3.3-0.6,3.3-2.4c0-1-0.5-1.8-2-2.2
		l-0.9-0.2c-0.6-0.2-0.9-0.3-0.9-0.8c0-0.6,0.6-0.7,1.1-0.7c0.7,0,1.5,0.1,1.8,0.1c0.3,0,0.4,0,0.4-0.3l0.1-0.9
		c0-0.2-0.1-0.2-0.2-0.3c-0.3,0-1.1-0.1-2.1-0.1c-2,0-2.9,0.9-2.9,2.2c0,1.2,0.7,1.9,1.8,2.2l0.9,0.2c0.7,0.2,1,0.4,1,0.9
		c0,0.7-0.4,0.8-1.5,0.8c-0.5,0-1.4-0.1-1.7-0.1C10.1,10.3,10.1,10.4,10,10.6"/>
	<path class="st1" d="M17.3,11.5c0,0.2,0.1,0.3,0.3,0.3h1.1c0.2,0,0.3-0.1,0.3-0.3v-7c0-0.2-0.1-0.3-0.3-0.3h-1.1
		c-0.2,0-0.3,0.1-0.3,0.3V11.5z"/>
	<path class="st0" d="M30.3,9.6c-0.1-0.2-0.2-0.3-0.2-0.6c0-0.1,0-0.2,0-0.2l0.3-1.4c0-0.1,0.2-0.3,0.3-0.3v0c0.5,0,0.9-0.1,1.2-0.1
		c0.4-0.1,0.8-0.2,1.1-0.4c0.3-0.2,0.5-0.4,0.7-0.7c0.2-0.3,0.2-0.7,0.2-1.2c0-0.8-0.2-1.4-0.6-1.7c-0.4-0.4-1.1-0.5-2.1-0.5h-2.5
		l0,13.1c0,0.3-0.2,0.5-0.5,0.5h-1.9c-0.3,0-0.5-0.2-0.5-0.5V0.5C26,0.2,26.2,0,26.5,0l5.4,0c1.8,0,3.1,0.4,3.9,1.3
		c0.8,0.8,1.2,2,1.2,3.4c0,0.7-0.1,1.3-0.3,1.8c-0.2,0.5-0.5,0.9-0.9,1.3c-0.4,0.3-0.8,0.6-1.2,0.8c-0.5,0.2-0.9,0.3-1.4,0.4
		l4.7,6.5c0.1,0.1,0.1,0.2,0.1,0.2c0,0.2-0.2,0.4-0.4,0.4l-2.2,0c-0.3,0-0.6-0.2-0.8-0.4L30.3,9.6z"/>
	<path class="st0" d="M49.9,15.6c0,0.2-0.2,0.4-0.5,0.4l-9,0c-0.3,0-0.5-0.2-0.5-0.5V0.5c0-0.3,0.2-0.5,0.5-0.5l8.9,0
		c0.3,0,0.5,0.2,0.5,0.5v1.6c0,0.3-0.2,0.5-0.5,0.5h-6.5v4l5.8,0c0.3,0,0.5,0.2,0.5,0.5v1.5c0,0.3-0.2,0.5-0.5,0.5l-5.8,0v4.5h6.8
		c0.3,0,0.5,0.2,0.5,0.5c0,0,0,0,0,0.1L49.9,15.6z"/>
	<path class="st0" d="M75.3,15.6c0,0.2-0.2,0.4-0.5,0.4l-9,0c-0.3,0-0.5-0.2-0.5-0.5V0.5c0-0.3,0.2-0.5,0.5-0.5l8.9,0
		c0.3,0,0.5,0.2,0.5,0.5v1.6c0,0.3-0.2,0.5-0.5,0.5h-6.5v4l5.8,0c0.3,0,0.5,0.2,0.5,0.5v1.5C74.5,8.8,74.3,9,74,9l-5.8,0v4.5H75
		c0.3,0,0.5,0.2,0.5,0.5c0,0,0,0,0,0.1L75.3,15.6z"/>
	<path class="st0" d="M59,15.6c0,0.3-0.2,0.5-0.5,0.5h-2c-0.3,0-0.5-0.2-0.5-0.5l0-13l-4.3,0c-0.3,0-0.5-0.2-0.5-0.5V0.5
		c0-0.3,0.2-0.5,0.5-0.5h11.5c0.3,0,0.5,0.2,0.5,0.5l0,1.6c0,0.3-0.2,0.5-0.5,0.5l-4.3,0L59,15.6z"/>
</g>
</svg>
