<?xml version="1.0" encoding="utf-8"?>
<!-- Generator: Adobe Illustrator 21.1.0, SVG Export Plug-In . SVG Version: 6.00 Build 0)  -->
<svg version="1.1" id="Livello_1" xmlns="http://www.w3.org/2000/svg" xmlns:xlink="http://www.w3.org/1999/xlink" x="0px" y="0px"
	 viewBox="0 0 64.2 47" style="enable-background:new 0 0 64.2 47;" xml:space="preserve">
<style type="text/css">
	.st0{fill:#AF001E;}
	.st1{fill:#FFFFFF;}
</style>
<g>
	<rect class="st0" width="64.1" height="47"/>
	<path class="st1" d="M16.1,23.1l-0.3,1.5c-0.1,0.4-0.1,0.6-0.1,0.8c0,0.3,0.1,0.6,0.3,1l4.1,7.4c0.3,0.6,0.6,0.8,1.5,0.8h3.8
		c0.5,0,1.1-0.3,0.5-1.2L20.8,25c1.7-1.1,3.6-2.6,3.6-6c0-4.3-2.4-6.8-7.8-6.8H8.9c-0.7,0-0.9,0.2-0.9,0.9v20.4
		c0,0.7,0.2,0.9,0.9,0.9h3.2c0.7,0,0.9-0.2,0.9-0.9v-17h3.3c2.1,0,3.1,0.8,3.1,2.7c0,1.8-0.8,2.3-1.6,2.7
		C16.8,22.3,16.4,21.8,16.1,23.1"/>
	<path class="st1" d="M29.3,31.1l-0.4,2.7c-0.1,0.5,0.2,0.7,0.6,0.8c1,0.1,3.5,0.3,6,0.3c5.5,0,9.5-1.8,9.5-6.9c0-3-1.3-5.3-5.9-6.4
		l-2.6-0.7c-1.7-0.5-2.5-1-2.5-2.3c0-1.8,1.7-2.1,3.3-2.1c2.1,0,4.3,0.2,5.2,0.2c0.9,0.1,1.1,0,1.3-0.8l0.4-2.6
		c0.1-0.5-0.2-0.7-0.6-0.8c-1-0.1-3.2-0.3-6-0.3c-5.7,0-8.5,2.5-8.5,6.4c0,3.6,1.9,5.7,5.3,6.5l2.6,0.7c2.1,0.6,3,1.2,3,2.5
		c0,1.9-1.3,2.3-4.5,2.3c-1.5,0-4-0.2-4.9-0.3S29.4,30.3,29.3,31.1"/>
	<path class="st1" d="M50.7,33.7c0,0.7,0.2,0.9,0.9,0.9h3.2c0.7,0,0.9-0.2,0.9-0.9V13.3c0-0.7-0.2-0.9-0.9-0.9h-3.2
		c-0.7,0-0.9,0.2-0.9,0.9V33.7z"/>
</g>
</svg>
