<?xml version="1.0" encoding="utf-8"?>
<!-- Generator: Adobe Illustrator 19.1.0, SVG Export Plug-In . SVG Version: 6.00 Build 0)  -->
<svg version="1.1" id="Livello_1" xmlns="http://www.w3.org/2000/svg" xmlns:xlink="http://www.w3.org/1999/xlink" x="0px" y="0px"
	 viewBox="0 0 135.8 47" style="enable-background:new 0 0 135.8 47;" xml:space="preserve">
<style type="text/css">
	.st0{fill:#FFC92F;}
	.st1{fill:#FFFFFF;}
</style>
<g>
	<g>
		<g>
			<rect y="1.1" class="st0" width="62.6" height="45.9"/>
			<path class="st1" d="M15.7,23.7l-0.3,1.4c-0.1,0.4-0.1,0.6-0.1,0.7c0,0.3,0.1,0.6,0.3,1l4,7.2c0.3,0.6,0.6,0.8,1.4,0.8h3.7
				c0.5,0,1-0.3,0.5-1.2l-4.9-8.2c1.7-1.1,3.5-2.5,3.5-5.8c0-4.2-2.4-6.6-7.6-6.6H8.7c-0.7,0-0.9,0.2-0.9,0.9V34
				c0,0.7,0.2,0.9,0.9,0.9h3.1c0.7,0,0.9-0.2,0.9-0.9V17.2h3.2c2,0,3,0.7,3,2.6c0,1.7-0.8,2.3-1.6,2.6C16.4,22.9,16,22.4,15.7,23.7z
				"/>
			<path class="st1" d="M28.6,31.4l-0.4,2.6c-0.1,0.5,0.2,0.7,0.6,0.8c1,0.1,3.4,0.3,5.8,0.3c5.4,0,9.3-1.8,9.3-6.8
				c0-2.9-1.3-5.1-5.7-6.3l-2.5-0.6c-1.7-0.4-2.5-1-2.5-2.2c0-1.8,1.6-2.1,3.2-2.1c2.1,0,4.2,0.2,5.1,0.2c0.9,0.1,1.1,0,1.3-0.8
				l0.4-2.5c0.1-0.5-0.2-0.7-0.6-0.8c-1-0.1-3.1-0.3-5.9-0.3c-5.6,0-8.3,2.4-8.3,6.3c0,3.5,1.9,5.5,5.2,6.4l2.5,0.6
				c2.1,0.5,2.9,1.1,2.9,2.4c0,1.9-1.3,2.2-4.4,2.2c-1.4,0-3.9-0.2-4.7-0.3C29,30.6,28.7,30.7,28.6,31.4z"/>
			<path class="st1" d="M49.5,34c0,0.7,0.2,0.9,0.9,0.9h3.1c0.7,0,0.9-0.2,0.9-0.9V14.1c0-0.7-0.2-0.9-0.9-0.9h-3.1
				c-0.7,0-0.9,0.2-0.9,0.9V34z"/>
		</g>
		<g>
			<path class="st0" d="M98.3,26.3c-0.2,0-0.4,0-0.6-0.1l0,0l-26.1-8.1c-0.8-0.2-1.2-0.8-1.2-1.6l0,0V10c0-0.9,0.4-1.4,1.2-1.7l0,0
				l26.1-8.1c0.2,0,0.4-0.1,0.6-0.1l0,0c0.3,0,0.6,0.1,0.8,0.3l0,0c0.2,0.2,0.3,0.5,0.3,0.8l0,0v4.5c0,0.7-0.5,1.3-1.2,1.5l0,0
				l-4.1,1.1v9.9l4.1,1.2c0.7,0.2,1.2,0.8,1.2,1.5l0,0v4.2c0,0.3-0.1,0.6-0.3,0.8l0,0C98.9,26.2,98.7,26.3,98.3,26.3L98.3,26.3
				L98.3,26.3L98.3,26.3z M88.5,10.1l-11.6,3.3l11.6,3.4V10.1z"/>
		</g>
		<g>
			<path class="st0" d="M92.7,28.9c0-0.3,0.1-0.6,0.3-0.8l0,0c0.2-0.2,0.5-0.3,0.8-0.3l0,0h0l0,0c0.2,0,0.4,0,0.6,0.1l0,0l3.8,1.2
				c0.7,0.2,1.2,0.8,1.2,1.5l0,0l0,15.1c0,0.7-0.6,1.3-1.3,1.3l0,0H71.7l0,0c-0.7,0-1.3-0.6-1.3-1.3l0,0v-4.5c0-0.7,0.6-1.3,1.3-1.3
				l0,0h21L92.7,28.9z"/>
		</g>
		<path class="st0" d="M106.8,11.2c-0.1,0.1-0.3,0.1-0.4,0.1c-0.6,0-1.1-0.5-1.1-1.1c0,0,0-0.1,0-0.1l0.5-6.2c0-0.7,0.5-1.3,1.1-1.5
			h0c0.1-0.1,0.3-0.1,0.5-0.2c0.8-0.3,1.9-0.6,3.1-1c1.3-0.3,2.7-0.7,4.2-0.9c1.6-0.3,3.2-0.4,4.9-0.4c5.2,0,9.1,1.2,11.9,3.7
			c2.8,2.5,4.1,6,4.1,10.5c0,2.6-0.6,4.9-1.7,6.9c-1.1,2-2.5,3.6-4.2,4.9c-1.7,1.3-3.3,2.5-4.7,3.5c-1,0.7-1.9,1.4-3,2.1
			c-1,0.7-2,1.4-2.8,2.1c-0.8,0.7-1.6,1.5-2.2,2.2c-0.6,0.7-1.1,1.5-1.3,2.2h17.4h1.1c0.9,0,1.6,0.7,1.6,1.6c0,0.1,0,0.2,0,0.3
			l-0.9,5.5c-0.1,0.8-0.8,1.4-1.6,1.4l-0.9,0l-26.3,0c-0.9,0-1.6-0.7-1.6-1.6l0-3.5c0-3.8,1-6.9,3-9.2c2-2.3,5.4-5.2,10.1-8.5
			c1.1-0.8,2.1-1.5,3-2.1c0.9-0.6,1.7-1.3,2.4-2c0.7-0.7,1.2-1.4,1.6-2.3c0.4-0.8,0.6-1.9,0.6-3.1c0-1.8-0.6-3.2-1.7-4.2
			c-1.1-1-2.9-1.5-5.4-1.5c-1.7,0-3.8,0.2-6.2,0.7l0,0C109.7,10.2,108,10.8,106.8,11.2L106.8,11.2z"/>
	</g>
</g>
</svg>
