<?xml version="1.0" encoding="utf-8"?>
<!-- Generator: Adobe Illustrator 19.1.0, SVG Export Plug-In . SVG Version: 6.00 Build 0)  -->
<svg version="1.1" id="RSI_NEWS" xmlns="http://www.w3.org/2000/svg" xmlns:xlink="http://www.w3.org/1999/xlink" x="0px" y="0px"
	 viewBox="0 0 244.4 73.7" style="enable-background:new 0 0 244.4 73.7;" xml:space="preserve">
<g>
	<path style="fill:#FFFFFF;" d="M113.9,19.4h6.3l14.5,24.8V19.4h5.9v34.9h-6.2l-14.6-24.9v24.9h-5.9V19.4z"/>
	<path style="fill:#FFFFFF;" d="M148.8,19.4h21.5v5.6h-15.1v8.7h13.7V39h-13.7v9.8h15.9l-0.7,5.5h-21.6V19.4z"/>
	<path style="fill:#FFFFFF;" d="M174,19.4h7l5.5,26.6l6.2-26.6h6.3l6.2,26.6l5.7-26.6h6.6l-9.1,34.9h-6.6l-6.1-25.8l-6.2,25.8h-6.6
		L174,19.4z"/>
	<path style="fill:#FFFFFF;" d="M221,48.4c0.2,0.1,0.7,0.2,1.5,0.3c0.7,0.1,1.6,0.3,2.5,0.4c0.9,0.2,1.9,0.3,2.9,0.4
		c1,0.1,1.9,0.2,2.8,0.2c1.3,0,2.4-0.1,3.3-0.2c0.9-0.2,1.7-0.4,2.2-0.8c0.6-0.4,1-0.9,1.2-1.5c0.3-0.6,0.4-1.4,0.4-2.4
		c0-1.6-0.4-2.8-1.3-3.4c-0.9-0.6-2.2-1.1-3.9-1.5l-3.9-0.9c-2.7-0.6-4.7-1.8-6.1-3.4c-1.4-1.6-2-3.9-2-6.7c0-3.1,1-5.6,2.9-7.5
		c1.9-1.8,5.1-2.8,9.3-2.8c1.2,0,2.4,0.1,3.5,0.2c1.1,0.1,2.1,0.3,3.1,0.4c0.9,0.2,1.7,0.3,2.3,0.5c0.6,0.2,1.1,0.3,1.3,0.4l-0.9,5
		c-0.3-0.1-0.8-0.2-1.4-0.3c-0.6-0.1-1.3-0.3-2.2-0.4c-0.8-0.1-1.7-0.2-2.7-0.3c-1-0.1-2-0.1-3-0.1c-0.9,0-1.7,0.1-2.4,0.2
		c-0.7,0.1-1.4,0.4-1.9,0.7c-0.5,0.3-1,0.8-1.3,1.4c-0.3,0.6-0.5,1.4-0.5,2.3c0,1.5,0.4,2.6,1.2,3.3c0.8,0.7,1.9,1.2,3.3,1.5
		l4.2,0.9c3.3,0.8,5.5,2,6.8,3.7c1.3,1.7,1.9,3.8,1.9,6.5c0,1.9-0.3,3.5-0.9,4.9c-0.6,1.3-1.5,2.4-2.6,3.3c-1.1,0.8-2.5,1.5-4,1.8
		c-1.6,0.4-3.3,0.6-5.3,0.6c-1.6,0-3-0.1-4.4-0.2c-1.4-0.2-2.6-0.3-3.6-0.5c-1-0.2-1.8-0.4-2.5-0.5c-0.6-0.2-1-0.2-1.1-0.3L221,48.4
		z"/>
</g>
<g id="RSI">
	<g>
		<rect style="fill:#AF001E;" width="100.6" height="73.7"/>
		<path style="fill:#FFFFFF;" d="M25.3,36.3l-0.5,2.3c-0.2,0.7-0.2,1-0.2,1.2c0,0.5,0.2,1,0.5,1.6L31.5,53c0.5,0.9,1,1.3,2.3,1.3
			h5.9c0.8,0,1.7-0.5,0.8-1.8l-7.9-13.1c2.7-1.7,5.6-4.1,5.6-9.3c0-6.8-3.8-10.6-12.2-10.6H14c-1.1,0-1.4,0.4-1.4,1.5v32
			c0,1.1,0.3,1.5,1.4,1.5h5c1.1,0,1.4-0.4,1.4-1.5v-27h5.2c3.3,0,4.8,1.2,4.8,4.2c0,2.8-1.2,3.6-2.5,4.2
			C26.3,34.9,25.8,34.2,25.3,36.3z"/>
		<path style="fill:#FFFFFF;" d="M45.9,48.7l-0.7,4.2c-0.1,0.8,0.3,1.1,1,1.2c1.6,0.2,5.5,0.5,9.4,0.5c8.6,0,14.9-2.8,14.9-10.9
			c0-4.7-2.1-8.3-9.2-10.1l-4-1c-2.7-0.7-4-1.6-4-3.6c0-2.8,2.6-3.4,5.1-3.4c3.4,0,6.8,0.3,8.1,0.4c1.4,0.1,1.8-0.1,2-1.2l0.6-4.1
			c0.1-0.8-0.3-1.1-1-1.2c-1.6-0.2-5-0.5-9.4-0.5c-9,0-13.3,3.9-13.3,10.1c0,5.6,3,8.9,8.3,10.3l4,1c3.3,0.9,4.7,1.8,4.7,3.9
			c0,3-2.1,3.6-7.1,3.6c-2.3,0-6.2-0.3-7.6-0.4C46.6,47.4,46.2,47.5,45.9,48.7z"/>
		<path style="fill:#FFFFFF;" d="M79.4,52.8c0,1.1,0.3,1.5,1.4,1.5h5c1.1,0,1.4-0.4,1.4-1.5v-32c0-1.1-0.3-1.5-1.4-1.5h-5
			c-1.1,0-1.4,0.4-1.4,1.5V52.8z"/>
	</g>
</g>
</svg>
