<?xml version="1.0" encoding="utf-8"?>
<!-- Generator: Adobe Illustrator 16.0.0, SVG Export Plug-In . SVG Version: 6.00 Build 0)  -->
<!DOCTYPE svg PUBLIC "-//W3C//DTD SVG 1.1//EN" "http://www.w3.org/Graphics/SVG/1.1/DTD/svg11.dtd">
<svg version="1.1" id="Layer_1" xmlns="http://www.w3.org/2000/svg" xmlns:xlink="http://www.w3.org/1999/xlink" x="0px" y="0px"
	 width="72px" height="25px" viewBox="0 0 72 25" enable-background="new 0 0 72 25" xml:space="preserve">
<g>
	<g>
		<path fill="#FFFFFF" d="M0,18.336V6.663h4.51c0.984,0,1.779,0.191,2.386,0.573c0.607,0.381,1.006,0.849,1.196,1.405
			c0.191,0.555,0.286,1.093,0.286,1.613c0,0.579-0.078,1.09-0.233,1.535c-0.157,0.446-0.411,0.818-0.765,1.12
			c-0.352,0.3-0.812,0.532-1.378,0.694c-0.567,0.161-1.261,0.242-2.081,0.242H3.383l0.503-2.081c0.485-0.012,0.86-0.072,1.126-0.182
			c0.266-0.11,0.458-0.28,0.574-0.511C5.7,10.838,5.76,10.577,5.76,10.288c0-0.485-0.116-0.847-0.348-1.084
			C5.181,8.968,4.754,8.849,4.127,8.849H2.638v9.487H0z"/>
		<path fill="#FFFFFF" d="M9.074,18.336V6.663h2.671v9.401h4.805l-0.278,2.271H9.074z"/>
		<path fill="#FFFFFF" d="M14.615,18.336l4.182-11.673h2.531l4.163,11.673h-2.688l-0.969-2.826h-3.667l-0.966,2.826H14.615z
			 M18.82,13.376h2.375l-1.168-3.799L18.82,13.376z"/>
		<path fill="#FFFFFF" d="M26.519,18.336v-4.943l-3.833-6.73h2.881l2.357,4.545l2.377-4.545h2.706l-3.816,6.73v4.943H26.519z"/>
	</g>
	<g>
		<rect x="38" fill="#AB001E" width="34" height="25"/>
		<path fill="#FFFFFF" d="M46.54,12.287l-0.159,0.798c-0.053,0.212-0.053,0.319-0.053,0.426c0,0.159,0.053,0.319,0.158,0.532
			l2.175,3.936c0.159,0.319,0.318,0.426,0.797,0.426h2.015c0.265,0,0.584-0.16,0.265-0.639l-2.704-4.468
			c0.9-0.584,1.909-1.383,1.909-3.191c0-2.287-1.272-3.617-4.138-3.617h-4.084c-0.371,0-0.478,0.106-0.478,0.479v10.852
			c0,0.372,0.106,0.479,0.478,0.479h1.697c0.372,0,0.478-0.106,0.478-0.479V8.776h1.751c1.114,0,1.644,0.426,1.644,1.437
			c0,0.957-0.424,1.223-0.849,1.436C46.91,11.861,46.699,11.596,46.54,12.287"/>
		<path fill="#FFFFFF" d="M53.542,16.542l-0.213,1.437c-0.053,0.266,0.105,0.373,0.318,0.426c0.53,0.053,1.857,0.159,3.183,0.159
			c2.918,0,5.04-0.957,5.04-3.67c0-1.596-0.69-2.819-3.131-3.404l-1.378-0.372c-0.903-0.267-1.327-0.532-1.327-1.224
			c0-0.958,0.902-1.117,1.751-1.117c1.113,0,2.281,0.106,2.758,0.106c0.478,0.053,0.584,0,0.689-0.426l0.212-1.383
			c0.053-0.266-0.105-0.372-0.317-0.426c-0.531-0.053-1.698-0.159-3.183-0.159c-3.023,0-4.51,1.33-4.51,3.404
			c0,1.915,1.009,3.032,2.812,3.458l1.378,0.372c1.114,0.32,1.593,0.638,1.593,1.33c0,1.011-0.689,1.224-2.388,1.224
			c-0.796,0-2.121-0.106-2.599-0.159C53.754,16.063,53.595,16.117,53.542,16.542"/>
		<path fill="#FFFFFF" d="M64.893,17.926c0,0.372,0.106,0.479,0.478,0.479h1.697c0.371,0,0.478-0.106,0.478-0.479V7.074
			c0-0.372-0.106-0.479-0.478-0.479H65.37c-0.371,0-0.478,0.106-0.478,0.479V17.926z"/>
	</g>
</g>
</svg>
