<?xml version="1.0" encoding="utf-8"?>
<!-- Generator: Adobe Illustrator 21.1.0, SVG Export Plug-In . SVG Version: 6.00 Build 0)  -->
<!DOCTYPE svg PUBLIC "-//W3C//DTD SVG 1.1//EN" "http://www.w3.org/Graphics/SVG/1.1/DTD/svg11.dtd" [
	<!ENTITY st0 "fill-rule:evenodd;clip-rule:evenodd;fill:#FEFEFE;">
	<!ENTITY st1 "fill-rule:evenodd;clip-rule:evenodd;fill:#FFFFFF;">
]>
<svg version="1.1" id="Layer_1" xmlns="http://www.w3.org/2000/svg" xmlns:xlink="http://www.w3.org/1999/xlink" x="0px" y="0px"
	 width="198px" height="24px" viewBox="0 0 198 24" style="enable-background:new 0 0 198 24;" xml:space="preserve">
<g>
	<polygon style="&st0;" points="74.8,0.8 74.8,4.2 67.6,4.2 67.6,5.9 63.7,5.9 63.7,4.2 56.6,4.2 56.6,0.8 	"/>
	<rect x="62.2" y="5.9" style="&st1;" width="3.9" height="12.2"/>
	<rect x="63.7" y="18.1" style="&st1;" width="3.9" height="5.1"/>
	<polygon style="&st0;" points="54.8,0.8 54.8,4.2 47.6,4.2 47.6,5.9 43.7,5.9 43.7,4.2 36.6,4.2 36.6,0.8 	"/>
	<path style="&st0;" d="M5.9,4h5.8c0.5,0,1,0.1,1.5,0.2c0.5,0.1,0.9,0.3,1.2,0.6c0.4,0.3,0.6,0.7,0.8,1.1c0,0,0,0,0,0h4
		c0-0.1-0.1-0.3-0.1-0.4c-0.2-0.8-0.6-1.6-1.1-2.3c-0.5-0.7-1.3-1.3-2.3-1.7c-1-0.5-2.3-0.7-3.9-0.7H2v5.1h3.9V4z"/>
	<path style="&st0;" d="M10.4,14.6c1.6,0,2.9-0.2,3.9-0.7c1-0.5,1.8-1,2.3-1.7c0.5-0.7,0.9-1.4,1.1-2.2C17.9,9.2,18,8.4,18,7.7
		c0-0.6-0.1-1.2-0.2-1.8h-4C14,6.4,14.1,7,14.1,7.7c0,0.7-0.1,1.3-0.4,1.8c-0.2,0.5-0.6,0.8-0.9,1.1c-0.4,0.3-0.8,0.5-1.3,0.6
		c-0.5,0.1-0.9,0.2-1.4,0.2H4.4V5.9H0.5v12.2h3.9v-3.5H10.4z"/>
	<rect x="2" y="18.1" style="&st1;" width="3.9" height="5.1"/>
	<polygon style="&st1;" points="27.7,5.9 30.6,14.3 23.7,14.3 26.7,5.9 23.2,5.9 18.5,18.1 22.4,18.1 22.7,17.3 31.6,17.3 
		31.9,18.1 36,18.1 31.3,5.9 	"/>
	<polygon style="&st1;" points="22.1,23.2 18,23.2 20,18.1 23.9,18.1 	"/>
	<polygon style="&st1;" points="35.3,23.2 39.5,23.2 37.5,18.1 33.4,18.1 	"/>
	<rect x="42.2" y="5.9" style="&st1;" width="3.9" height="12.2"/>
	<rect x="43.7" y="18.1" style="&st1;" width="3.9" height="5.1"/>
	<rect x="77.3" y="0.8" style="&st1;" width="3.9" height="5.1"/>
	<rect x="75.8" y="5.9" style="&st1;" width="3.9" height="12.2"/>
	<rect x="77.3" y="18.1" style="&st1;" width="3.9" height="5.1"/>
	<path style="&st1;" d="M101.2,4.2c0.9-0.5,1.9-0.7,3.1-0.7c0.8,0,1.5,0.1,2.2,0.3c0.6,0.2,1.2,0.5,1.6,0.9c0.4,0.3,0.7,0.7,1,1.2
		h4.3c-0.1-0.4-0.3-0.8-0.5-1.2c-0.5-0.9-1.2-1.7-2.1-2.4c-0.8-0.7-1.8-1.2-2.9-1.5c-1.1-0.3-2.3-0.5-3.6-0.5
		c-1.7,0-3.2,0.3-4.5,0.9c-1.3,0.6-2.5,1.5-3.4,2.5c-0.6,0.7-1,1.4-1.4,2.2h4.3C99.8,5.2,100.5,4.6,101.2,4.2"/>
	<path style="&st1;" d="M110.8,6.1c0.3,0.5,0.5,1.1,0.7,1.8h3.9c-0.1-0.7-0.2-1.4-0.4-2h-4.3C110.7,6,110.7,6,110.8,6.1"/>
	<path style="&st1;" d="M100.6,17.9c-0.5-0.8-0.9-1.7-1.2-2.8c-0.3-1-0.4-2.1-0.4-3.1c0-1.1,0.1-2.1,0.4-3.1c0.3-1,0.7-1.9,1.2-2.8
		c0-0.1,0.1-0.1,0.2-0.2h-4.3c-0.3,0.5-0.5,1-0.7,1.6c-0.5,1.4-0.7,2.9-0.7,4.5c0,1.6,0.2,3.1,0.7,4.6c0.2,0.5,0.4,1,0.7,1.5h4.3
		C100.7,18,100.7,18,100.6,17.9"/>
	<path style="&st1;" d="M111.6,14.7c-0.1,0.8-0.3,1.6-0.5,2.3c-0.2,0.4-0.3,0.8-0.6,1.1h4.2c0.4-1,0.7-2.2,0.8-3.4H111.6z"/>
	<path style="&st1;" d="M108.4,18.8c-0.5,0.5-1.1,1-1.7,1.3c-0.7,0.3-1.4,0.5-2.3,0.5c-1.2,0-2.2-0.2-3.1-0.7c-0.8-0.4-1.4-1-2-1.7
		H95c0.4,0.8,0.9,1.5,1.5,2.2c0.9,1.1,2,1.9,3.4,2.5c1.3,0.6,2.8,0.9,4.5,0.9c1.4,0,2.6-0.2,3.7-0.7c1.1-0.4,2.1-1.1,3-1.9
		c0.8-0.8,1.5-1.8,2-2.9c0-0.1,0.1-0.2,0.1-0.3H109C108.8,18.4,108.6,18.6,108.4,18.8"/>
	<rect x="117.4" y="18.1" style="&st1;" width="3.9" height="5.1"/>
	<polygon style="&st1;" points="133.1,5.9 133.1,9.7 122.9,9.7 122.9,5.9 118.9,5.9 118.9,18.1 122.9,18.1 122.9,13.1 133.1,13.1 
		133.1,18.1 137,18.1 137,5.9 	"/>
	<rect x="117.4" y="0.8" style="&st1;" width="3.9" height="5.1"/>
	<rect x="131.6" y="0.8" style="&st1;" width="3.9" height="5.1"/>
	<rect x="131.6" y="18.1" style="&st1;" width="3.9" height="5.1"/>
	<rect x="140.2" y="0.8" style="&st1;" width="3.9" height="5.1"/>
	<rect x="141.7" y="5.9" style="&st1;" width="3.9" height="12.2"/>
	<rect x="140.2" y="18.1" style="&st1;" width="3.9" height="5.1"/>
	<polygon style="&st1;" points="161.1,5.9 159.2,0.8 155,0.8 153,5.9 	"/>
	<polygon style="&st1;" points="159,5.9 162,14.3 155.1,14.3 158.1,5.9 154.5,5.9 149.8,18.1 153.7,18.1 154,17.3 163,17.3 
		163.3,18.1 167.3,18.1 162.6,5.9 	"/>
	<polygon style="&st1;" points="146.4,23.2 150.4,23.2 152.2,18.1 148.3,18.1 	"/>
	<polygon style="&st1;" points="163.6,23.2 167.8,23.2 165.8,18.1 161.8,18.1 	"/>
	<path style="&st1;" d="M173.9,4h6.4c0.5,0,1,0,1.5,0.1c0.5,0.1,0.9,0.3,1.3,0.5c0.4,0.3,0.7,0.6,0.9,1.1c0,0.1,0.1,0.2,0.1,0.2h4.1
		c-0.2-1.5-0.8-2.6-1.8-3.5c-1.2-1.1-3.1-1.6-5.6-1.6h-10.7v5.1h3.9V4z"/>
	<path style="&st1;" d="M188.9,15.1c-0.2-0.6-0.5-1.1-0.8-1.4c-0.3-0.4-0.7-0.6-1.1-0.8c-0.4-0.2-0.8-0.3-1.1-0.3v-0.1
		c0.2-0.1,0.5-0.2,0.9-0.4c0.4-0.2,0.8-0.5,1.2-0.9c0.4-0.4,0.8-1,1.1-1.7c0.3-0.7,0.5-1.6,0.5-2.7c0-0.3,0-0.6-0.1-0.9h-4.1
		c0.1,0.4,0.2,0.9,0.2,1.5c0,1.2-0.3,2.1-1,2.7c-0.7,0.6-1.6,0.9-2.9,0.9h-6.4V5.9h-3.9v12.2h3.9V14h5.8c0.9,0,1.6,0.1,2.2,0.3
		c0.6,0.2,1,0.6,1.4,1.1c0.3,0.5,0.6,1.1,0.7,1.9c0,0.3,0.1,0.5,0.1,0.8h3.7c0-0.3,0-0.5,0-0.8C189.2,16.4,189.1,15.7,188.9,15.1"/>
	<rect x="169.9" y="18.1" style="&st1;" width="3.9" height="5.1"/>
	<path style="&st1;" d="M184.1,19.9c0,0.5,0,1.1,0.1,1.7c0.1,0.6,0.2,1.1,0.5,1.6h4.2c-0.4-0.5-0.7-1.2-0.9-2.3
		c-0.2-0.9-0.3-1.8-0.3-2.8h-3.7C184.1,18.6,184.1,19.3,184.1,19.9"/>
	<rect x="192.1" y="0.8" style="&st1;" width="3.9" height="5.1"/>
	<rect x="193.6" y="5.9" style="&st1;" width="3.9" height="12.2"/>
	<rect x="192.1" y="18.1" style="&st1;" width="3.9" height="5.1"/>
	<polygon style="&st1;" points="32.8,5.9 30.8,0.8 26.6,0.8 24.7,5.9 	"/>
</g>
</svg>
