<?xml version="1.0" encoding="utf-8"?>
<!-- Generator: Adobe Illustrator 19.2.1, SVG Export Plug-In . SVG Version: 6.00 Build 0)  -->
<svg version="1.1" id="Layer_1" xmlns="http://www.w3.org/2000/svg" xmlns:xlink="http://www.w3.org/1999/xlink" x="0px" y="0px"
	 viewBox="0 0 34 25" style="enable-background:new 0 0 34 25;" xml:space="preserve">
<style type="text/css">
	.st0{fill:#FFFFFF;}
</style>
<g>
	<path class="st0" d="M0,0v24.9h34V0H0z M13.4,18.4h-2c-0.4,0-0.6-0.1-0.8-0.4L8.5,14c-0.1-0.2-0.2-0.4-0.2-0.6c0-0.1,0-0.2,0.1-0.4
		l0.2-0.8c0.2-0.7,0.4-0.5,0.9-0.7c0.4-0.2,0.8-0.5,0.8-1.4c0-1-0.5-1.4-1.6-1.4H6.9v9.1c0,0.4-0.1,0.5-0.5,0.5H4.7
		c-0.4,0-0.5-0.1-0.5-0.5V7.1c0-0.4,0.1-0.5,0.5-0.5h4.1c2.8,0,4.1,1.3,4.1,3.6c0,1.8-1,2.6-1.9,3.2l2.7,4.4
		C14,18.2,13.7,18.4,13.4,18.4z M18.8,18.5c-1.3,0-2.6-0.1-3.2-0.2c-0.2,0-0.4-0.1-0.3-0.4l0.2-1.4c0.1-0.4,0.2-0.5,0.7-0.4
		c0.5,0,1.8,0.1,2.6,0.1c1.7,0,2.4-0.2,2.4-1.2c0-0.7-0.5-1-1.6-1.3l-1.4-0.4c-1.8-0.5-2.8-1.6-2.8-3.5c0-2.1,1.5-3.4,4.5-3.4
		c1.5,0,2.7,0.1,3.2,0.2c0.2,0,0.4,0.1,0.3,0.4l-0.2,1.4c-0.1,0.4-0.2,0.5-0.7,0.4c-0.5,0-1.6-0.1-2.8-0.1c-0.8,0-1.7,0.2-1.7,1.1
		c0,0.7,0.4,1,1.3,1.2l1.4,0.3c2.4,0.6,3.1,1.8,3.1,3.4C23.9,17.5,21.7,18.5,18.8,18.5z M29.5,17.9c0,0.4-0.1,0.5-0.5,0.5h-1.7
		c-0.4,0-0.5-0.1-0.5-0.5V7.1c0-0.4,0.1-0.5,0.5-0.5H29c0.4,0,0.5,0.1,0.5,0.5V17.9z"/>
</g>
</svg>
