<?xml version="1.0" encoding="utf-8"?>
<!-- Generator: Adobe Illustrator 21.1.0, SVG Export Plug-In . SVG Version: 6.00 Build 0)  -->
<svg version="1.1" id="RSI_NEWS" xmlns="http://www.w3.org/2000/svg" xmlns:xlink="http://www.w3.org/1999/xlink" x="0px" y="0px"
	 viewBox="0 0 207.3 47" style="enable-background:new 0 0 207.3 47;" xml:space="preserve">
<style type="text/css">
	.st0{fill:#FFFFFF;}
	.st1{fill:#AF001E;}
</style>
<g>
	<path class="st0" d="M88,34.3c0,0-0.2,0.1-0.6,0.2c-0.3,0.1-0.8,0.2-1.3,0.3c-0.5,0.1-1.1,0.2-1.8,0.2c-0.7,0.1-1.4,0.1-2.2,0.1
		c-1.5,0-2.9-0.2-4.1-0.6c-1.2-0.4-2.2-1-3-1.9c-0.8-0.9-1.5-2.1-1.9-3.6c-0.4-1.5-0.6-3.3-0.6-5.5c0-2.1,0.2-3.8,0.7-5.3
		c0.5-1.5,1.1-2.7,2-3.6c0.8-0.9,1.9-1.6,3.1-2c1.2-0.4,2.6-0.6,4.2-0.6c0.7,0,1.5,0,2.1,0.1c0.7,0.1,1.3,0.2,1.8,0.3
		c0.5,0.1,1,0.2,1.3,0.4c0.4,0.1,0.6,0.2,0.7,0.2l-0.8,3.3c-0.2-0.1-0.6-0.1-0.9-0.2c-0.4-0.1-0.8-0.2-1.2-0.2
		c-0.4-0.1-0.9-0.1-1.4-0.2c-0.5-0.1-0.9-0.1-1.3-0.1c-1,0-1.9,0.1-2.6,0.3c-0.8,0.2-1.4,0.6-1.9,1.2c-0.5,0.6-0.8,1.4-1.1,2.4
		c-0.2,1-0.4,2.3-0.4,3.9c0,1.6,0.1,2.9,0.4,3.9c0.2,1,0.6,1.9,1.1,2.5c0.5,0.6,1.1,1,1.9,1.3c0.8,0.2,1.7,0.4,2.7,0.4
		c1,0,2-0.1,2.9-0.2c1-0.2,1.8-0.3,2.4-0.4L88,34.3z"/>
	<path class="st0" d="M91.9,12.4H96v14.7c0,1,0.1,1.8,0.3,2.3c0.2,0.6,0.5,1.1,0.9,1.4c0.4,0.4,0.8,0.6,1.4,0.7
		c0.5,0.1,1.2,0.2,1.9,0.2c0.7,0,1.3-0.1,1.9-0.2c0.6-0.1,1-0.4,1.4-0.7c0.4-0.4,0.7-0.8,0.9-1.4c0.2-0.6,0.3-1.4,0.3-2.3V12.4h4.1
		v14.2c0,1.7-0.2,3.1-0.6,4.2c-0.4,1.1-0.9,2-1.7,2.6c-0.7,0.6-1.6,1.1-2.7,1.3c-1.1,0.2-2.3,0.4-3.6,0.4c-1.3,0-2.5-0.1-3.6-0.4
		c-1-0.2-1.9-0.7-2.7-1.3c-0.7-0.6-1.3-1.5-1.7-2.6c-0.4-1.1-0.6-2.5-0.6-4.2V12.4z"/>
	<path class="st0" d="M114,12.4h4.1v18.8h9.7l-0.5,3.5H114V12.4z"/>
	<path class="st0" d="M132.9,15.9h-6.6v-3.5h17.3v3.5H137v18.7h-4.1V15.9z"/>
	<path class="st0" d="M146.8,12.4h4.1v14.7c0,1,0.1,1.8,0.3,2.3c0.2,0.6,0.5,1.1,0.9,1.4c0.4,0.4,0.8,0.6,1.4,0.7
		c0.5,0.1,1.2,0.2,1.9,0.2c0.7,0,1.3-0.1,1.9-0.2c0.6-0.1,1-0.4,1.4-0.7c0.4-0.4,0.7-0.8,0.9-1.4c0.2-0.6,0.3-1.4,0.3-2.3V12.4h4.1
		v14.2c0,1.7-0.2,3.1-0.6,4.2c-0.4,1.1-0.9,2-1.7,2.6c-0.7,0.6-1.6,1.1-2.7,1.3c-1.1,0.2-2.3,0.4-3.6,0.4c-1.3,0-2.5-0.1-3.6-0.4
		c-1-0.2-1.9-0.7-2.7-1.3c-0.7-0.6-1.3-1.5-1.7-2.6c-0.4-1.1-0.6-2.5-0.6-4.2V12.4z"/>
	<path class="st0" d="M168.9,12.4h8.2c2.5,0,4.3,0.6,5.5,1.7c1.1,1.2,1.7,2.7,1.7,4.7c0,1-0.2,1.9-0.5,2.6c-0.3,0.7-0.7,1.3-1.2,1.7
		c-0.5,0.5-1.1,0.8-1.7,1.1c-0.6,0.3-1.3,0.5-2,0.6l7.1,9.9h-4.8l-6.7-9.5l0.7-2.8c0.8,0,1.5-0.1,2.1-0.2c0.6-0.1,1.1-0.3,1.6-0.5
		c0.4-0.3,0.7-0.6,1-1c0.2-0.4,0.3-1,0.3-1.6c0-1.1-0.3-1.9-0.8-2.4c-0.6-0.5-1.5-0.8-3-0.8h-3.4v18.9h-4V12.4z"/>
	<path class="st0" d="M195.4,12.4h4l7.9,22.3h-4.2l-1.9-5.6h-7.9l-1.9,5.6h-4L195.4,12.4z M200.2,25.7l-2.9-8.6l-2.9,8.6H200.2z"/>
</g>
<g id="RSI">
	<g>
		<rect class="st1" width="64.1" height="47"/>
		<path class="st0" d="M16.1,23.1l-0.3,1.5c-0.1,0.4-0.1,0.6-0.1,0.8c0,0.3,0.1,0.6,0.3,1l4.1,7.4c0.3,0.6,0.6,0.8,1.5,0.8h3.8
			c0.5,0,1.1-0.3,0.5-1.2l-5.1-8.4c1.7-1.1,3.6-2.6,3.6-6c0-4.3-2.4-6.8-7.8-6.8H8.9c-0.7,0-0.9,0.2-0.9,0.9v20.4
			c0,0.7,0.2,0.9,0.9,0.9h3.2c0.7,0,0.9-0.2,0.9-0.9V16.5h3.3c2.1,0,3.1,0.8,3.1,2.7c0,1.8-0.8,2.3-1.6,2.7
			C16.8,22.3,16.4,21.8,16.1,23.1z"/>
		<path class="st0" d="M29.3,31.1l-0.4,2.7c-0.1,0.5,0.2,0.7,0.6,0.8c1,0.1,3.5,0.3,6,0.3c5.5,0,9.5-1.8,9.5-6.9
			c0-3-1.3-5.3-5.9-6.4l-2.6-0.7c-1.7-0.4-2.5-1-2.5-2.3c0-1.8,1.7-2.1,3.3-2.1c2.1,0,4.3,0.2,5.2,0.2c0.9,0.1,1.1,0,1.3-0.8
			l0.4-2.6c0.1-0.5-0.2-0.7-0.6-0.8c-1-0.1-3.2-0.3-6-0.3c-5.7,0-8.5,2.5-8.5,6.4c0,3.6,1.9,5.7,5.3,6.5l2.6,0.7
			c2.1,0.6,3,1.2,3,2.5c0,1.9-1.3,2.3-4.5,2.3c-1.5,0-4-0.2-4.9-0.3C29.7,30.2,29.4,30.3,29.3,31.1z"/>
		<path class="st0" d="M50.7,33.7c0,0.7,0.2,0.9,0.9,0.9h3.2c0.7,0,0.9-0.2,0.9-0.9V13.3c0-0.7-0.2-0.9-0.9-0.9h-3.2
			c-0.7,0-0.9,0.2-0.9,0.9V33.7z"/>
	</g>
</g>
</svg>
