<?xml version="1.0" encoding="utf-8"?>
<!-- Generator: Adobe Illustrator 16.0.0, SVG Export Plug-In . SVG Version: 6.00 Build 0)  -->
<!DOCTYPE svg PUBLIC "-//W3C//DTD SVG 1.1//EN" "http://www.w3.org/Graphics/SVG/1.1/DTD/svg11.dtd">
<svg version="1.1" id="Layer_1" xmlns="http://www.w3.org/2000/svg" xmlns:xlink="http://www.w3.org/1999/xlink" x="0px" y="0px"
	 width="70px" height="32px" viewBox="0 0 70 32" enable-background="new 0 0 70 32" xml:space="preserve">
<g>
	<rect fill="#AB001E" width="43.437" height="32"/>
	<path fill="#FFFFFF" d="M10.909,15.728l-0.202,1.021c-0.068,0.272-0.068,0.409-0.068,0.545c0,0.204,0.068,0.409,0.203,0.681
		l2.779,5.038c0.202,0.409,0.406,0.545,1.016,0.545h2.575c0.339,0,0.747-0.204,0.339-0.817l-3.456-5.719
		c1.152-0.749,2.439-1.771,2.439-4.085c0-2.927-1.627-4.629-5.286-4.629H6.031c-0.474,0-0.609,0.136-0.609,0.612v13.89
		c0,0.477,0.135,0.613,0.609,0.613h2.168c0.475,0,0.61-0.137,0.61-0.613V11.234h2.236c1.423,0,2.1,0.545,2.1,1.838
		c0,1.226-0.541,1.566-1.083,1.839C11.384,15.184,11.113,14.843,10.909,15.728"/>
	<path fill="#FFFFFF" d="M19.855,21.175l-0.272,1.838c-0.067,0.341,0.136,0.477,0.407,0.545c0.677,0.068,2.372,0.204,4.065,0.204
		c3.728,0,6.438-1.226,6.438-4.697c0-2.043-0.882-3.609-3.999-4.358l-1.761-0.476c-1.153-0.341-1.694-0.682-1.694-1.566
		c0-1.226,1.152-1.43,2.235-1.43c1.423,0,2.914,0.136,3.524,0.136c0.609,0.068,0.746,0,0.881-0.545l0.271-1.77
		c0.068-0.34-0.136-0.477-0.406-0.545c-0.678-0.068-2.169-0.204-4.067-0.204c-3.862,0-5.76,1.702-5.76,4.357
		c0,2.451,1.288,3.881,3.592,4.425l1.762,0.477c1.423,0.408,2.034,0.816,2.034,1.701c0,1.294-0.881,1.566-3.05,1.566
		c-1.016,0-2.709-0.136-3.32-0.204C20.125,20.562,19.923,20.63,19.855,21.175"/>
	<path fill="#FFFFFF" d="M34.356,22.945c0,0.477,0.135,0.612,0.61,0.612h2.168c0.474,0,0.61-0.136,0.61-0.612V9.056
		c0-0.477-0.137-0.613-0.61-0.613h-2.168c-0.475,0-0.61,0.137-0.61,0.613V22.945z"/>
	<path fill="#FFFFFF" d="M48.857,23.148c0,0.273-0.203,0.478-0.474,0.478h-2.102c-0.271,0-0.474-0.204-0.474-0.478v-2.109
		c0-0.273,0.203-0.478,0.474-0.478h2.102c0.271,0,0.474,0.204,0.474,0.478V23.148z"/>
	<path fill="#FFFFFF" d="M70,23.148c0,0.273-0.204,0.478-0.475,0.478h-2.102c-0.27,0-0.474-0.204-0.474-0.478v-6.331
		c0-0.953-0.406-1.43-1.287-1.43c-0.475,0-0.948,0.068-1.288,0.205c-0.406,0.136-0.609,0.272-0.745,0.34l0.068,7.216
		c0,0.273-0.204,0.478-0.475,0.478h-2.102c-0.271,0-0.474-0.204-0.474-0.478V8.919c0-0.272,0.203-0.477,0.474-0.477h2.102
		c0.271,0,0.475,0.205,0.475,0.477v4.63c0.136-0.068,0.271-0.136,0.474-0.204c0.203-0.068,0.406-0.204,0.609-0.272
		c0.271-0.067,0.476-0.136,0.813-0.204c0.271-0.068,0.61-0.068,0.949-0.068c0.745,0,1.423,0.136,1.965,0.409
		c0.543,0.272,0.949,0.681,1.152,1.225C69.864,14.979,70,15.592,70,16.272V23.148z"/>
	<path fill="#FFFFFF" d="M58.006,23.489c-0.136,0.068-0.407,0.068-0.678,0.137c-0.678,0.136-1.355,0.204-2.033,0.204
		c-0.881,0-1.626-0.068-2.236-0.272c-0.609-0.204-1.151-0.545-1.559-0.953c-0.406-0.408-0.677-1.021-0.881-1.702
		c-0.203-0.682-0.271-1.566-0.271-2.587c0-1.021,0.137-1.906,0.34-2.656c0.204-0.68,0.542-1.293,1.017-1.702
		c0.475-0.409,1.016-0.749,1.694-0.953c0.677-0.205,1.423-0.272,2.371-0.272c0.541,0,1.084,0.067,1.626,0.136
		c0.406,0.068,0.746,0.137,1.085,0.272l0,0c0.202,0.068,0.271,0.204,0.271,0.408c0,0.068,0,0.068,0,0.137l-0.34,1.361
		c-0.067,0.204-0.203,0.34-0.406,0.34c-0.067,0-0.067,0-0.136,0l0,0c-0.338-0.068-0.609-0.136-0.881-0.204
		c-0.406-0.068-0.745-0.068-1.152-0.068c-0.609,0-1.084,0.136-1.423,0.34c-0.339,0.205-0.609,0.545-0.745,1.09
		c-0.136,0.477-0.204,1.089-0.204,1.771c0,0.952,0.137,1.634,0.406,2.179c0.272,0.477,0.543,0.748,0.95,0.885
		c0.406,0.068,0.813,0.137,1.151,0.137c0.746,0,1.491-0.068,2.304-0.204l0,0h0.068c0.136,0,0.271,0.136,0.271,0.271l0,0
		l-0.135,1.498C58.345,23.285,58.209,23.422,58.006,23.489"/>
</g>
</svg>
